<svg version="1.1" xmlns="http://www.w3.org/2000/svg" viewBox="0 0 6670.389846702379 4489.663839849756" width="6670.389846702379" height="4489.663839849756"><!-- svg-source:excalidraw --><metadata></metadata><defs><style class="style-fonts">
      @font-face { font-family:Times New Roman; src: url(); }</style></defs><rect x="0" y="0" width="6670.389846702379" height="4489.663839849756" fill="#ffffff"></rect><g stroke-linecap="round" transform="translate(4208.831566934567 504.5947765989813) rotate(0 314.0580104246733 69.01679230150603)"><path d="M0 0 C187.76 1.42, 374.05 2.25, 628.12 0 M0 0 C222.02 -1.99, 443.87 -1.99, 628.12 0 M628.12 0 C630.98 54.4, 630.69 109.39, 628.12 138.03 M628.12 0 C627.7 45.07, 627.49 88.87, 628.12 138.03 M628.12 138.03 C418.34 137.6, 207.84 137.93, 0 138.03 M628.12 138.03 C460.21 139.04, 292.49 138.94, 0 138.03 M0 138.03 C0.63 86.28, -0.23 31.85, 0 0 M0 138.03 C-0.26 96.45, 0.76 57.18, 0 0" stroke="#1e1e1e" stroke-width="2" fill="none"></path></g><g transform="translate(4352.008734349534 505.8146911616068) rotate(0 236.46050326122554 76.41067512990685)"><text x="0" y="106.97494518186984" font-family="Times New Roman" font-size="122.25708020785126px" fill="#1e1e1e" text-anchor="start" style="white-space: pre;" direction="ltr" dominant-baseline="alphabetic">Users</text></g><g stroke-linecap="round" transform="translate(5029.971491620818 616.5837545883787) rotate(0 298.6004131334121 79.87122399539567)"><path d="M205.23 4.75 C226.83 1.54, 255.93 1.7, 281.81 1.09 C307.7 0.49, 335.18 -0.11, 360.55 1.1 C385.92 2.32, 411.07 5.2, 434.02 8.39 C456.97 11.57, 479.16 15.61, 498.27 20.24 C517.38 24.87, 534.77 30.46, 548.7 36.17 C562.62 41.87, 573.76 48.03, 581.8 54.46 C589.85 60.89, 595.59 67.72, 596.98 74.73 C598.36 81.75, 595.41 89.67, 590.11 96.55 C584.81 103.42, 576.58 110.03, 565.19 115.98 C553.79 121.93, 538.9 127.2, 521.76 132.24 C504.61 137.29, 484 142.42, 462.3 146.25 C440.6 150.07, 415.99 153.05, 391.55 155.21 C367.12 157.37, 341.36 158.78, 315.69 159.19 C290.02 159.61, 262.87 158.87, 237.54 157.68 C212.21 156.48, 186.68 154.97, 163.71 152.04 C140.74 149.11, 118.8 144.68, 99.71 140.08 C80.62 135.49, 63.29 130.29, 49.15 124.47 C35.02 118.66, 23.04 111.95, 14.91 105.22 C6.79 98.48, 1.74 91.11, 0.42 84.06 C-0.91 77, 1.84 69.54, 6.97 62.9 C12.1 56.27, 19.6 50.14, 31.2 44.24 C42.8 38.33, 59.27 32.62, 76.58 27.5 C93.88 22.38, 109.47 17.61, 135.04 13.53 C160.62 9.46, 209.7 4.82, 230.04 3.05 C250.37 1.28, 255.83 1.67, 257.05 2.88 M423.6 5.96 C447.89 7.44, 468.15 13.88, 487.94 18.39 C507.74 22.91, 527.49 27.52, 542.4 33.04 C557.3 38.56, 568.36 44.81, 577.38 51.51 C586.4 58.21, 593.82 66.51, 596.51 73.23 C599.2 79.95, 597.76 85.3, 593.53 91.83 C589.3 98.36, 581.77 106.07, 571.13 112.43 C560.48 118.8, 546.38 124.8, 529.68 130.04 C512.97 135.28, 491.77 139.93, 470.89 143.86 C450 147.79, 428.33 151.12, 404.36 153.63 C380.39 156.15, 352.67 158.14, 327.07 158.97 C301.48 159.81, 276.06 159.66, 250.81 158.63 C225.56 157.6, 199.37 155.51, 175.55 152.79 C151.73 150.06, 127.91 146.94, 107.88 142.29 C87.85 137.64, 70.35 130.87, 55.38 124.89 C40.4 118.91, 27.13 112.57, 18.04 106.42 C8.95 100.26, 2.97 94.36, 0.83 87.97 C-1.3 81.59, 0.89 74.77, 5.23 68.1 C9.58 61.43, 16.36 54.22, 26.9 47.92 C37.44 41.63, 52.06 35.63, 68.46 30.32 C84.87 25.01, 104.63 20.12, 125.34 16.06 C146.04 12.01, 168.67 8.64, 192.7 6 C216.73 3.35, 243.7 1.17, 269.5 0.21 C295.31 -0.74, 322.19 -1.1, 347.51 0.26 C372.84 1.63, 409.62 7.07, 421.45 8.39 C433.27 9.71, 420.27 7.29, 418.46 8.18" stroke="#1e1e1e" stroke-width="2" fill="none"></path></g><g transform="translate(5123.074106460812 631.6375800452088) rotate(0 204.94184909096384 62.6155057436531)"><text x="0" y="87.66170804111441" font-family="Times New Roman" font-size="100.18480918984503px" fill="#1e1e1e" text-anchor="start" style="white-space: pre;" direction="ltr" dominant-baseline="alphabetic">user_id</text></g><g stroke-linecap="round" transform="translate(5023.865450872179 437.4513090095297) rotate(0 230.12897221414096 65.9522308704627)"><path d="M315.38 4 C336.86 5.09, 357.02 10.12, 374.64 14.25 C392.26 18.38, 408.47 23.38, 421.09 28.78 C433.71 34.18, 443.91 40.49, 450.37 46.63 C456.82 52.76, 459.84 59.21, 459.81 65.57 C459.78 71.93, 456.94 78.47, 450.19 84.79 C443.45 91.12, 432.12 98.04, 419.32 103.52 C406.53 109, 390.91 113.84, 373.44 117.67 C355.97 121.5, 335.52 124.25, 314.48 126.51 C293.45 128.78, 269.92 130.74, 247.23 131.27 C224.53 131.8, 200.31 131.14, 178.31 129.7 C156.31 128.25, 134.74 125.83, 115.22 122.6 C95.71 119.38, 76.7 114.91, 61.22 110.37 C45.75 105.83, 32.15 101.04, 22.39 95.37 C12.63 89.7, 5.88 82.78, 2.65 76.37 C-0.58 69.96, -0.36 63.36, 3.01 56.91 C6.38 50.45, 13.12 43.68, 22.88 37.66 C32.64 31.63, 46.06 25.67, 61.58 20.75 C77.09 15.84, 96.51 11.28, 115.97 8.16 C135.43 5.03, 156.29 3.19, 178.33 2.01 C200.37 0.82, 223.13 0.24, 248.2 1.05 C273.28 1.86, 313.51 5.28, 328.78 6.86 C344.06 8.44, 341.53 9.54, 339.85 10.54 M222.68 0.61 C244.15 -1.04, 270.87 -0.49, 292.69 1.17 C314.5 2.82, 334.6 6.93, 353.57 10.55 C372.53 14.17, 391.93 18.04, 406.48 22.9 C421.04 27.75, 432.02 33.48, 440.89 39.68 C449.76 45.89, 457.13 53.82, 459.7 60.12 C462.27 66.43, 460.68 71.43, 456.32 77.52 C451.95 83.62, 444.2 90.89, 433.52 96.69 C422.83 102.49, 408.63 107.87, 392.19 112.34 C375.75 116.8, 354.87 120.57, 334.88 123.48 C314.89 126.39, 294.34 128.55, 272.24 129.81 C250.15 131.07, 224.73 131.64, 202.34 131.03 C179.94 130.43, 158.35 128.71, 137.85 126.18 C117.36 123.64, 96.75 119.96, 79.35 115.83 C61.95 111.7, 45.49 107.16, 33.46 101.38 C21.43 95.6, 12.88 87.79, 7.19 81.14 C1.5 74.5, -1.64 67.7, -0.68 61.52 C0.28 55.35, 4.98 49.73, 12.96 44.11 C20.93 38.48, 33.52 32.82, 47.19 27.76 C60.86 22.7, 76.81 17.57, 94.97 13.73 C113.13 9.9, 134.72 6.85, 156.14 4.76 C177.57 2.68, 212.52 1.64, 223.53 1.23 C234.54 0.81, 222.21 1.4, 222.22 2.27" stroke="#1e1e1e" stroke-width="2" fill="none"></path></g><g transform="translate(5136.104038311638 439.7848495085718) rotate(0 146.24305221778195 61.47155475371801)"><text x="0" y="86.06017665520534" font-family="Times New Roman" font-size="98.35448760594895px" fill="#1e1e1e" text-anchor="start" style="white-space: pre;" direction="ltr" dominant-baseline="alphabetic">name</text></g><g stroke-linecap="round" transform="translate(4937.944792733468 230.43265279993648) rotate(0 326.66159284186097 82.55861811214845)"><path d="M233.26 3.41 C256.29 0.3, 286.73 0.44, 313.6 0.1 C340.47 -0.24, 368.01 0.05, 394.49 1.36 C420.97 2.67, 448.3 4.79, 472.48 7.98 C496.67 11.16, 519.16 15.86, 539.61 20.47 C560.05 25.08, 579.51 30.2, 595.16 35.62 C610.81 41.04, 624.08 46.68, 633.51 53.01 C642.94 59.33, 649.1 66.71, 651.76 73.57 C654.41 80.43, 653.38 87.4, 649.43 94.17 C645.48 100.95, 638.53 107.88, 628.06 114.22 C617.59 120.55, 603.13 126.51, 586.62 132.17 C570.11 137.83, 550.21 143.77, 529 148.19 C507.78 152.61, 483.95 155.91, 459.31 158.68 C434.67 161.46, 407.9 163.75, 381.17 164.84 C354.44 165.93, 325.98 165.98, 298.92 165.21 C271.87 164.44, 244.28 162.65, 218.83 160.22 C193.38 157.78, 168.92 154.32, 146.24 150.63 C123.57 146.95, 100.9 142.94, 82.79 138.1 C64.68 133.26, 49.97 127.64, 37.59 121.59 C25.21 115.54, 14.86 108.46, 8.51 101.81 C2.15 95.16, -1.09 88.53, -0.53 81.69 C0.02 74.85, 4.43 67.45, 11.83 60.77 C19.24 54.09, 30.13 47.71, 43.89 41.63 C57.65 35.56, 75.34 29.13, 94.39 24.32 C113.43 19.5, 128.93 16.65, 158.15 12.75 C187.37 8.84, 244.46 2.64, 269.73 0.9 C294.99 -0.85, 308.71 0.97, 309.74 2.28 M287.69 -0.59 C312.61 -2.96, 343.05 -0.82, 369.93 0.17 C396.81 1.16, 424.17 2.87, 448.97 5.34 C473.77 7.8, 496.82 11.01, 518.74 14.98 C540.65 18.96, 563.12 23.81, 580.44 29.2 C597.76 34.6, 611.18 40.99, 622.64 47.37 C634.1 53.75, 644.1 60.63, 649.2 67.46 C654.31 74.29, 655.45 81.4, 653.25 88.36 C651.04 95.32, 644.61 102.99, 635.97 109.22 C627.33 115.45, 616.05 120.36, 601.42 125.75 C586.8 131.14, 568.1 136.6, 548.21 141.56 C528.33 146.52, 505.54 151.77, 482.1 155.51 C458.65 159.25, 433.69 162.21, 407.53 164 C381.37 165.79, 352.36 166.32, 325.15 166.26 C297.94 166.2, 270.41 165.38, 244.24 163.65 C218.07 161.93, 192.07 159.29, 168.14 155.91 C144.21 152.53, 120.43 148.33, 100.68 143.39 C80.94 138.46, 63.89 132.39, 49.65 126.3 C35.41 120.21, 23.58 113.15, 15.25 106.86 C6.92 100.57, 1.43 95.33, -0.33 88.56 C-2.08 81.79, -0.75 73.28, 4.7 66.25 C10.16 59.22, 20.37 52.73, 32.4 46.38 C44.43 40.03, 59.42 33.43, 76.88 28.14 C94.35 22.85, 115.13 18.32, 137.18 14.63 C159.22 10.95, 184.26 8.17, 209.14 6.05 C234.02 3.92, 273.05 2.61, 286.44 1.87 C299.84 1.14, 288.77 0.57, 289.51 1.64" stroke="#1e1e1e" stroke-width="2" fill="none"></path></g><g transform="translate(5029.832089882762 265.7362701539487) rotate(0 237.5834503173828 49.09040702003949)"><text x="0" y="68.72656982805537" font-family="Times New Roman" font-size="78.54465123206329px" fill="#1e1e1e" text-anchor="start" style="white-space: pre;" direction="ltr" dominant-baseline="alphabetic">phonenumber</text></g><g stroke-linecap="round" transform="translate(5000.78196487109 987.6884886347625) rotate(0 218.10493051733056 80.24017683751072)"><path d="M256.27 0.34 C276.94 0.28, 298.63 4.7, 317.56 8.34 C336.5 11.98, 354.49 16.69, 369.88 22.2 C385.27 27.7, 399.61 34.41, 409.93 41.36 C420.25 48.3, 427.66 55.93, 431.82 63.87 C435.98 71.81, 436.96 80.99, 434.87 89.01 C432.79 97.03, 427.49 104.72, 419.31 111.99 C411.12 119.25, 399.53 126.61, 385.75 132.61 C371.97 138.61, 354.68 143.89, 336.62 147.99 C318.56 152.08, 297.88 155.2, 277.37 157.18 C256.87 159.15, 235.15 159.9, 213.59 159.82 C192.03 159.74, 168.35 158.95, 148.02 156.7 C127.69 154.45, 108.86 150.88, 91.59 146.31 C74.31 141.73, 57.52 135.52, 44.36 129.25 C31.21 122.99, 20.03 116.13, 12.63 108.73 C5.23 101.32, 0.98 92.8, -0.02 84.84 C-1.02 76.88, 1.17 68.76, 6.62 60.97 C12.08 53.17, 21.49 44.73, 32.72 38.07 C43.95 31.41, 58.21 26.2, 73.98 20.99 C89.76 15.78, 107.88 10.12, 127.36 6.81 C146.83 3.5, 168.73 2.13, 190.84 1.15 C212.95 0.17, 247.88 0.48, 260.01 0.94 C272.15 1.39, 264.21 2.44, 263.67 3.9 M134.33 5.64 C151.43 1.48, 174.16 0.21, 195.56 -0.63 C216.97 -1.48, 241.62 -1.1, 262.78 0.58 C283.93 2.26, 303.64 5.49, 322.49 9.44 C341.34 13.39, 360.79 18.54, 375.88 24.29 C390.97 30.05, 403.67 36.83, 413.04 43.98 C422.41 51.14, 428.55 59.72, 432.09 67.22 C435.63 74.72, 436.98 81.52, 434.27 88.97 C431.56 96.42, 424.75 104.44, 415.84 111.92 C406.93 119.4, 394.69 127.48, 380.83 133.86 C366.97 140.23, 350.86 145.94, 332.66 150.16 C314.46 154.38, 292.53 157.27, 271.62 159.18 C250.71 161.09, 228.57 162, 207.19 161.6 C185.82 161.21, 163.76 159.55, 143.38 156.79 C122.99 154.03, 102.05 150.04, 84.89 145.04 C67.73 140.05, 52.75 133.51, 40.43 126.81 C28.12 120.1, 17.86 112.08, 10.98 104.83 C4.11 97.59, -0.13 91.13, -0.82 83.31 C-1.5 75.49, 0.78 65.82, 6.87 57.92 C12.96 50.03, 23.69 42.71, 35.73 35.92 C47.77 29.14, 62.57 22.29, 79.11 17.2 C95.66 12.1, 125.39 6.86, 134.98 5.35 C144.58 3.83, 135.63 6.53, 136.69 8.12" stroke="#1e1e1e" stroke-width="2" fill="none"></path></g><g transform="translate(5087.885628522956 1009.987370849828) rotate(0 138.64947509765625 52.51876434715041)"><text x="0" y="73.52627008601074" font-family="Times New Roman" font-size="84.03002295544084px" fill="#1e1e1e" text-anchor="start" style="white-space: pre;" direction="ltr" dominant-baseline="alphabetic">gender</text></g><g stroke-linecap="round" transform="translate(5020.23991145475 9.99999999999909) rotate(0 218.28580766888126 83.9849218792474)"><path d="M126.74 7.15 C143.84 2.66, 168.67 1.36, 189.98 0.31 C211.3 -0.75, 233.59 -0.8, 254.62 0.79 C275.66 2.38, 297.01 5.96, 316.19 9.85 C335.36 13.73, 354.12 18.39, 369.69 24.11 C385.27 29.82, 399.26 36.98, 409.63 44.15 C420 51.32, 427.57 59.26, 431.9 67.14 C436.22 75.03, 437.45 83.42, 435.59 91.46 C433.72 99.51, 429.03 107.67, 420.7 115.41 C412.38 123.14, 399.32 131.26, 385.65 137.87 C371.97 144.48, 356.42 150.52, 338.63 155.07 C320.83 159.61, 299.69 162.85, 278.89 165.15 C258.08 167.46, 235.29 169.05, 213.81 168.91 C192.32 168.77, 170.25 166.95, 149.96 164.29 C129.67 161.63, 109.4 157.88, 92.09 152.96 C74.78 148.04, 59.09 141.24, 46.09 134.77 C33.1 128.29, 21.85 121.85, 14.1 114.13 C6.34 106.41, 0.81 96.74, -0.45 88.45 C-1.72 80.15, 1.25 72.42, 6.48 64.36 C11.71 56.31, 19.93 47.21, 30.93 40.13 C41.92 33.05, 53.33 27.71, 72.43 21.88 C91.53 16.06, 130.34 8.01, 145.5 5.17 C160.66 2.34, 162.35 3.52, 163.4 4.86 M175.27 0.69 C194.68 -2.1, 217.51 -0.97, 238.91 -0.01 C260.3 0.95, 283.71 3.17, 303.66 6.45 C323.61 9.73, 342.51 14.25, 358.61 19.66 C374.72 25.07, 388.75 32.27, 400.31 38.92 C411.87 45.56, 422.1 51.97, 427.98 59.54 C433.86 67.1, 436.12 75.75, 435.61 84.3 C435.1 92.85, 431.33 102.53, 424.92 110.84 C418.52 119.14, 409.52 127.28, 397.18 134.12 C384.83 140.96, 368.01 146.9, 350.83 151.88 C333.65 156.86, 314.19 161.16, 294.09 164.02 C273.99 166.88, 251.93 168.65, 230.25 169.05 C208.57 169.44, 184.94 168.61, 164.04 166.38 C143.13 164.15, 123.02 160.23, 104.83 155.66 C86.65 151.09, 69.27 144.91, 54.93 138.98 C40.59 133.04, 27.88 127.48, 18.8 120.04 C9.71 112.59, 2.92 102.8, 0.42 94.31 C-2.08 85.81, -0.22 77.36, 3.8 69.06 C7.83 60.76, 14.75 51.88, 24.56 44.48 C34.37 37.08, 47.7 30.3, 62.67 24.68 C77.64 19.06, 95.96 14.39, 114.4 10.78 C132.85 7.17, 163 4.34, 173.35 3 C183.7 1.67, 175.69 1.7, 176.52 2.77" stroke="#1e1e1e" stroke-width="2" fill="none"></path></g><g transform="translate(5105.690733086822 46.343613215664845) rotate(0 126.57496463587677 56.91315569784501)"><text x="0" y="79.6784179769833" font-family="Times New Roman" font-size="91.06104911655234px" fill="#1e1e1e" text-anchor="start" style="white-space: pre;" direction="ltr" dominant-baseline="alphabetic">email</text></g><g stroke-linecap="round" transform="translate(5034.093912822578 793.3169890376512) rotate(0 219.04747868811228 65.9522308704627)"><path d="M160.85 1.99 C179.52 -0.44, 203.88 0.53, 225.42 0.91 C246.95 1.28, 269.58 2.12, 290.06 4.21 C310.54 6.31, 330.9 9.71, 348.28 13.48 C365.66 17.24, 381.52 21.81, 394.34 26.81 C407.17 31.81, 417.87 37.52, 425.24 43.45 C432.61 49.38, 437.72 55.8, 438.54 62.38 C439.36 68.96, 435.59 76.42, 430.16 82.94 C424.72 89.47, 417.11 95.98, 405.93 101.51 C394.74 107.04, 379.47 111.85, 363.06 116.13 C346.64 120.4, 327.15 124.53, 307.44 127.17 C287.73 129.8, 266.08 131.26, 244.8 131.94 C223.53 132.62, 200.76 132.59, 179.78 131.27 C158.8 129.96, 137.94 126.98, 118.91 124.06 C99.89 121.15, 81.24 118.3, 65.64 113.77 C50.04 109.23, 35.53 102.61, 25.3 96.85 C15.06 91.08, 8.29 85.58, 4.23 79.18 C0.16 72.78, -1.27 64.9, 0.93 58.45 C3.13 52, 8.79 46.29, 17.42 40.47 C26.06 34.65, 38.88 28.49, 52.71 23.56 C66.55 18.62, 81.09 14.43, 100.41 10.87 C119.73 7.3, 155.76 3.67, 168.62 2.14 C181.48 0.62, 176.81 0.58, 177.59 1.71 M146.11 3.89 C164.32 0.92, 188.33 0.47, 209.45 0.3 C230.57 0.12, 252.16 1.51, 272.85 2.86 C293.55 4.21, 315.29 5.37, 333.62 8.39 C351.94 11.42, 368.67 15.83, 382.8 21 C396.94 26.18, 409.29 33.03, 418.42 39.42 C427.56 45.81, 434.92 52.77, 437.63 59.32 C440.35 65.88, 438.66 72.39, 434.72 78.74 C430.78 85.1, 423.87 91.68, 414.02 97.44 C404.17 103.21, 390.97 108.77, 375.63 113.34 C360.3 117.92, 341.05 122.04, 322.02 124.89 C302.99 127.75, 282.4 129.5, 261.46 130.48 C240.51 131.45, 217.83 131.17, 196.34 130.73 C174.85 130.3, 152.49 130.33, 132.49 127.86 C112.5 125.39, 92.56 120.39, 76.37 115.9 C60.17 111.41, 46.57 106.53, 35.33 100.91 C24.08 95.28, 14.59 88.43, 8.92 82.14 C3.26 75.86, 0.67 69.38, 1.33 63.21 C1.99 57.05, 6.31 50.93, 12.88 45.16 C19.44 39.39, 28.08 33.98, 40.73 28.57 C53.37 23.15, 71.46 16.85, 88.74 12.66 C106.03 8.47, 134.63 4.56, 144.43 3.41 C154.24 2.26, 146.21 4.42, 147.55 5.75" stroke="#1e1e1e" stroke-width="2" fill="none"></path></g><g transform="translate(5165.175354137296 812.3844199815612) rotate(0 78.54281896291968 59.50306953324798)"><text x="0" y="83.30429734654743" font-family="Times New Roman" font-size="95.20491125319707px" fill="#1e1e1e" text-anchor="start" style="white-space: pre;" direction="ltr" dominant-baseline="alphabetic">DOB</text></g><g stroke-linecap="round"><g transform="translate(5100.007627556162 743.7902665639149) rotate(0 218.6514390080406 -1.5339995045369506)"><path d="M0.62 -0.34 C33.32 -1.17, 122.94 -5.33, 195.81 -4.88 C268.69 -4.43, 397.56 1.45, 437.86 2.36 M-0.52 -1.56 C32.61 -2.23, 125.18 -3.83, 198.16 -3.49 C271.15 -3.16, 397.41 -0.32, 437.39 0.46" stroke="#1e1e1e" stroke-width="4" fill="none"></path></g></g><mask></mask><g stroke-linecap="round"><g transform="translate(4688.439783738433 503.4036380030302) rotate(0 163.7615165033758 -204.427058904334)"><path d="M0 0 C128.71 -160.67, 257.42 -321.34, 327.52 -408.85 M0 0 C78.21 -97.63, 156.42 -195.26, 327.52 -408.85" stroke="#1e1e1e" stroke-width="4" fill="none"></path></g></g><mask></mask><g stroke-linecap="round"><g transform="translate(4763.176589969697 503.4036380030302) rotate(0 87.92565685596969 -86.82656151362744)"><path d="M0 0 C60.66 -59.9, 121.32 -119.8, 175.85 -173.65 M0 0 C36.06 -35.6, 72.11 -71.21, 175.85 -173.65" stroke="#1e1e1e" stroke-width="4" fill="none"></path></g></g><mask></mask><g stroke-linecap="round"><g transform="translate(4840.111586885645 534.177552917009) rotate(0 92.3218285943376 -14.28790404084748)"><path d="M0 0 C63.75 -9.87, 127.5 -19.73, 184.64 -28.58 M0 0 C57.93 -8.97, 115.87 -17.93, 184.64 -28.58" stroke="#1e1e1e" stroke-width="4" fill="none"></path></g></g><mask></mask><g stroke-linecap="round"><g transform="translate(4842.309693717929 611.1124659805573) rotate(0 94.52001927902211 35.17025435714777)"><path d="M0 0 C61.68 22.95, 123.35 45.9, 189.04 70.34 M0 0 C43.53 16.2, 87.06 32.39, 189.04 70.34" stroke="#1e1e1e" stroke-width="4" fill="none"></path></g></g><mask></mask><g stroke-linecap="round"><g transform="translate(4771.969185003634 648.480869096189) rotate(0 130.78932705231182 102.21351897061686)"><path d="M0 0 C93.56 73.12, 187.11 146.23, 261.58 204.43 M0 0 C74.23 58.01, 148.47 116.03, 261.58 204.43" stroke="#1e1e1e" stroke-width="4" fill="none"></path></g></g><mask></mask><g stroke-linecap="round"><g transform="translate(4684.043570073864 648.480869096189) rotate(0 159.36513513400655 200.0308662028665)"><path d="M0 0 C113.78 142.81, 227.55 285.62, 318.73 400.06 M0 0 C101.82 127.8, 203.64 255.6, 318.73 400.06" stroke="#1e1e1e" stroke-width="4" fill="none"></path></g></g><mask></mask><g stroke-linecap="round" transform="translate(990.2478699202316 529.7240606862797) rotate(0 528.4315873475169 80.9082137730893)"><path d="M0 0 C301.18 0, 602.36 0, 1056.86 0 M0 0 C220.24 0, 440.49 0, 1056.86 0 M1056.86 0 C1056.86 58.96, 1056.86 117.93, 1056.86 161.82 M1056.86 0 C1056.86 35.37, 1056.86 70.74, 1056.86 161.82 M1056.86 161.82 C729.64 161.82, 402.43 161.82, 0 161.82 M1056.86 161.82 C792.53 161.82, 528.2 161.82, 0 161.82 M0 161.82 C0 128.22, 0 94.62, 0 0 M0 161.82 C0 127.49, 0 93.16, 0 0" stroke="#1e1e1e" stroke-width="4" fill="none"></path></g><g transform="translate(1070.636759478797 560.0649422577007) rotate(0 425.5647742588077 63.16977524106869)"><text x="0" y="88.43768533749592" font-family="Times New Roman" font-size="101.07164038570963px" fill="#1e1e1e" text-anchor="start" style="white-space: pre;" direction="ltr" dominant-baseline="alphabetic">Membership_plan</text></g><g stroke-linecap="round" transform="translate(107.81768584290558 70.79742623878792) rotate(0 251.3925733541482 87.21782358361907)"><path d="M502.79 87.22 C502.79 89.29, 502.57 91.37, 502.14 93.44 C501.72 95.51, 501.08 97.58, 500.23 99.63 C499.38 101.68, 498.31 103.73, 497.04 105.76 C495.77 107.78, 494.29 109.8, 492.6 111.79 C490.92 113.78, 489.02 115.75, 486.93 117.7 C484.85 119.64, 482.55 121.56, 480.07 123.45 C477.58 125.34, 474.9 127.2, 472.03 129.02 C469.17 130.84, 466.11 132.63, 462.88 134.37 C459.65 136.12, 456.23 137.83, 452.64 139.49 C449.06 141.15, 445.3 142.77, 441.38 144.33 C437.47 145.9, 433.38 147.42, 429.15 148.89 C424.93 150.36, 420.54 151.77, 416.02 153.13 C411.5 154.49, 406.83 155.8, 402.05 157.04 C397.26 158.28, 392.33 159.47, 387.31 160.59 C382.28 161.71, 377.12 162.77, 371.87 163.77 C366.63 164.76, 361.26 165.69, 355.82 166.55 C350.39 167.42, 344.85 168.21, 339.25 168.94 C333.64 169.66, 327.95 170.32, 322.22 170.9 C316.48 171.49, 310.67 172, 304.83 172.44 C298.99 172.88, 293.09 173.25, 287.17 173.55 C281.25 173.84, 275.29 174.07, 269.33 174.21 C263.36 174.36, 257.37 174.44, 251.39 174.44 C245.41 174.44, 239.42 174.36, 233.46 174.21 C227.5 174.07, 221.53 173.84, 215.62 173.55 C209.7 173.25, 203.8 172.88, 197.96 172.44 C192.11 172, 186.3 171.49, 180.57 170.9 C174.83 170.32, 169.14 169.66, 163.54 168.94 C157.94 168.21, 152.4 167.42, 146.96 166.55 C141.52 165.69, 136.16 164.76, 130.91 163.77 C125.67 162.77, 120.51 161.71, 115.48 160.59 C110.45 159.47, 105.52 158.28, 100.74 157.04 C95.95 155.8, 91.28 154.49, 86.77 153.13 C82.25 151.77, 77.86 150.36, 73.63 148.89 C69.4 147.42, 65.32 145.9, 61.4 144.33 C57.49 142.77, 53.72 141.15, 50.14 139.49 C46.56 137.83, 43.14 136.12, 39.91 134.37 C36.68 132.63, 33.62 130.84, 30.75 129.02 C27.89 127.2, 25.2 125.34, 22.72 123.45 C20.23 121.56, 17.94 119.64, 15.85 117.7 C13.76 115.75, 11.87 113.78, 10.18 111.79 C8.5 109.8, 7.02 107.78, 5.75 105.76 C4.47 103.73, 3.41 101.68, 2.56 99.63 C1.71 97.58, 1.07 95.51, 0.64 93.44 C0.21 91.37, 0 89.29, 0 87.22 C0 85.14, 0.21 83.06, 0.64 81 C1.07 78.93, 1.71 76.86, 2.56 74.81 C3.41 72.75, 4.47 70.7, 5.75 68.68 C7.02 66.65, 8.5 64.64, 10.18 62.65 C11.87 60.66, 13.76 58.68, 15.85 56.74 C17.94 54.8, 20.23 52.87, 22.72 50.99 C25.2 49.1, 27.89 47.24, 30.75 45.42 C33.62 43.6, 36.68 41.81, 39.91 40.06 C43.14 38.32, 46.56 36.61, 50.14 34.95 C53.72 33.29, 57.49 31.67, 61.4 30.1 C65.32 28.53, 69.4 27.01, 73.63 25.55 C77.86 24.08, 82.25 22.66, 86.77 21.3 C91.28 19.94, 95.95 18.64, 100.74 17.4 C105.52 16.15, 110.45 14.97, 115.48 13.85 C120.51 12.72, 125.67 11.66, 130.91 10.67 C136.16 9.67, 141.52 8.74, 146.96 7.88 C152.4 7.02, 157.94 6.22, 163.54 5.5 C169.14 4.77, 174.83 4.12, 180.57 3.53 C186.3 2.95, 192.11 2.43, 197.96 1.99 C203.8 1.55, 209.7 1.18, 215.62 0.89 C221.53 0.59, 227.5 0.37, 233.46 0.22 C239.42 0.07, 245.41 0, 251.39 0 C257.37 0, 263.36 0.07, 269.33 0.22 C275.29 0.37, 281.25 0.59, 287.17 0.89 C293.09 1.18, 298.99 1.55, 304.83 1.99 C310.67 2.43, 316.48 2.95, 322.22 3.53 C327.95 4.12, 333.64 4.77, 339.25 5.5 C344.85 6.22, 350.39 7.02, 355.82 7.88 C361.26 8.74, 366.63 9.67, 371.87 10.67 C377.12 11.66, 382.28 12.72, 387.31 13.85 C392.33 14.97, 397.26 16.15, 402.05 17.4 C406.83 18.64, 411.5 19.94, 416.02 21.3 C420.54 22.66, 424.93 24.08, 429.15 25.55 C433.38 27.01, 437.47 28.53, 441.38 30.1 C445.3 31.67, 449.06 33.29, 452.64 34.95 C456.23 36.61, 459.65 38.32, 462.88 40.06 C466.11 41.81, 469.17 43.6, 472.03 45.42 C474.9 47.24, 477.58 49.1, 480.07 50.99 C482.55 52.87, 484.85 54.8, 486.93 56.74 C489.02 58.68, 490.92 60.66, 492.6 62.65 C494.29 64.64, 495.77 66.65, 497.04 68.68 C498.31 70.7, 499.38 72.75, 500.23 74.81 C501.08 76.86, 501.72 78.93, 502.14 81 C502.57 83.06, 502.79 85.14, 502.79 87.22" stroke="#1e1e1e" stroke-width="4" fill="none"></path></g><g transform="translate(210.4269207587845 118.68178805595471) rotate(0 148.2759954391139 47.711502185803965)"><text x="0" y="66.79610306012536" font-family="Times New Roman" font-size="76.33840349728612px" fill="#1e1e1e" text-anchor="start" style="white-space: pre;" direction="ltr" dominant-baseline="alphabetic">plan_id</text></g><g stroke-linecap="round" transform="translate(61.91131744452082 323.5282486183569) rotate(0 281.99693013995585 87.21782358361907)"><path d="M563.99 87.22 C563.99 89.12, 563.79 91.02, 563.39 92.92 C562.99 94.82, 562.38 96.72, 561.58 98.6 C560.78 100.49, 559.77 102.37, 558.58 104.23 C557.38 106.1, 555.98 107.95, 554.39 109.79 C552.79 111.63, 551 113.45, 549.03 115.25 C547.05 117.05, 544.88 118.84, 542.53 120.59 C540.18 122.35, 537.63 124.09, 534.91 125.79 C532.19 127.5, 529.29 129.18, 526.21 130.83 C523.14 132.47, 519.88 134.09, 516.47 135.67 C513.05 137.25, 509.46 138.8, 505.72 140.31 C501.98 141.82, 498.07 143.29, 494.01 144.72 C489.96 146.15, 485.75 147.55, 481.4 148.89 C477.05 150.23, 472.55 151.54, 467.93 152.79 C463.31 154.05, 458.54 155.25, 453.67 156.41 C448.79 157.57, 443.78 158.68, 438.67 159.74 C433.55 160.79, 428.32 161.8, 423 162.75 C417.67 163.7, 412.23 164.6, 406.72 165.44 C401.21 166.28, 395.59 167.07, 389.91 167.8 C384.23 168.52, 378.46 169.2, 372.64 169.81 C366.82 170.42, 360.92 170.97, 354.98 171.46 C349.04 171.96, 343.04 172.39, 337.01 172.76 C330.98 173.13, 324.9 173.44, 318.8 173.69 C312.71 173.94, 306.58 174.12, 300.44 174.25 C294.31 174.37, 288.14 174.44, 282 174.44 C275.85 174.44, 269.69 174.37, 263.55 174.25 C257.42 174.12, 251.28 173.94, 245.19 173.69 C239.09 173.44, 233.01 173.13, 226.98 172.76 C220.95 172.39, 214.95 171.96, 209.01 171.46 C203.07 170.97, 197.17 170.42, 191.35 169.81 C185.53 169.2, 179.76 168.52, 174.08 167.8 C168.4 167.07, 162.79 166.28, 157.27 165.44 C151.76 164.6, 146.32 163.7, 141 162.75 C135.67 161.8, 130.44 160.79, 125.33 159.74 C120.22 158.68, 115.21 157.57, 110.33 156.41 C105.45 155.25, 100.69 154.05, 96.06 152.79 C91.44 151.54, 86.94 150.23, 82.59 148.89 C78.25 147.55, 74.03 146.15, 69.98 144.72 C65.93 143.29, 62.02 141.82, 58.27 140.31 C54.53 138.8, 50.94 137.25, 47.53 135.67 C44.11 134.09, 40.85 132.47, 37.78 130.83 C34.71 129.18, 31.8 127.5, 29.08 125.79 C26.36 124.09, 23.82 122.35, 21.47 120.59 C19.11 118.84, 16.94 117.05, 14.97 115.25 C12.99 113.45, 11.2 111.63, 9.61 109.79 C8.02 107.95, 6.62 106.1, 5.42 104.23 C4.22 102.37, 3.21 100.49, 2.41 98.6 C1.61 96.72, 1.01 94.82, 0.6 92.92 C0.2 91.02, 0 89.12, 0 87.22 C0 85.32, 0.2 83.41, 0.6 81.51 C1.01 79.62, 1.61 77.72, 2.41 75.83 C3.21 73.95, 4.22 72.07, 5.42 70.2 C6.62 68.34, 8.02 66.48, 9.61 64.64 C11.2 62.81, 12.99 60.98, 14.97 59.18 C16.94 57.38, 19.11 55.6, 21.47 53.84 C23.82 52.08, 26.36 50.35, 29.08 48.64 C31.8 46.94, 34.71 45.26, 37.78 43.61 C40.85 41.96, 44.11 40.34, 47.53 38.76 C50.94 37.18, 54.53 35.63, 58.27 34.12 C62.02 32.61, 65.93 31.14, 69.98 29.71 C74.03 28.28, 78.25 26.89, 82.59 25.55 C86.94 24.2, 91.44 22.9, 96.06 21.64 C100.69 20.39, 105.45 19.18, 110.33 18.02 C115.21 16.87, 120.22 15.76, 125.33 14.7 C130.44 13.64, 135.67 12.64, 141 11.68 C146.32 10.73, 151.76 9.84, 157.27 8.99 C162.79 8.15, 168.4 7.37, 174.08 6.64 C179.76 5.91, 185.53 5.24, 191.35 4.63 C197.17 4.02, 203.07 3.46, 209.01 2.97 C214.95 2.48, 220.95 2.05, 226.98 1.68 C233.01 1.3, 239.09 0.99, 245.19 0.75 C251.28 0.5, 257.42 0.31, 263.55 0.19 C269.69 0.06, 275.85 0, 282 0 C288.14 0, 294.31 0.06, 300.44 0.19 C306.58 0.31, 312.71 0.5, 318.8 0.75 C324.9 0.99, 330.98 1.3, 337.01 1.68 C343.04 2.05, 349.04 2.48, 354.98 2.97 C360.92 3.46, 366.82 4.02, 372.64 4.63 C378.46 5.24, 384.23 5.91, 389.91 6.64 C395.59 7.37, 401.21 8.15, 406.72 8.99 C412.23 9.84, 417.67 10.73, 423 11.68 C428.32 12.64, 433.55 13.64, 438.67 14.7 C443.78 15.76, 448.79 16.87, 453.67 18.02 C458.54 19.18, 463.31 20.39, 467.93 21.64 C472.55 22.9, 477.05 24.2, 481.4 25.55 C485.75 26.89, 489.96 28.28, 494.01 29.71 C498.07 31.14, 501.98 32.61, 505.72 34.12 C509.46 35.63, 513.05 37.18, 516.47 38.76 C519.88 40.34, 523.14 41.96, 526.21 43.61 C529.29 45.26, 532.19 46.94, 534.91 48.64 C537.63 50.35, 540.18 52.08, 542.53 53.84 C544.88 55.6, 547.05 57.38, 549.03 59.18 C551 60.98, 552.79 62.81, 554.39 64.64 C555.98 66.48, 557.38 68.34, 558.58 70.2 C559.77 72.07, 560.78 73.95, 561.58 75.83 C562.38 77.72, 562.99 79.62, 563.39 81.51 C563.79 83.41, 563.99 85.32, 563.99 87.22" stroke="#1e1e1e" stroke-width="4" fill="none"></path></g><g transform="translate(164.52038558007268 358.2963383985152) rotate(0 191.72802737546363 54.26938803381745)"><text x="0" y="75.97714324734424" font-family="Times New Roman" font-size="86.8310208541077px" fill="#1e1e1e" text-anchor="start" style="white-space: pre;" direction="ltr" dominant-baseline="alphabetic">planName</text></g><g stroke-linecap="round" transform="translate(26.934814386267817 542.130225270148) rotate(0 310.41521378954104 87.21782358361907)"><path d="M620.83 87.22 C620.83 89.04, 620.63 90.87, 620.22 92.69 C619.81 94.52, 619.2 96.34, 618.38 98.15 C617.57 99.96, 616.55 101.77, 615.33 103.56 C614.11 105.35, 612.69 107.14, 611.08 108.91 C609.46 110.68, 607.65 112.43, 605.64 114.17 C603.63 115.91, 601.42 117.63, 599.03 119.32 C596.64 121.02, 594.05 122.7, 591.29 124.35 C588.52 126.01, 585.56 127.64, 582.43 129.24 C579.3 130.84, 575.99 132.41, 572.51 133.95 C569.03 135.49, 565.37 137.01, 561.55 138.48 C557.73 139.96, 553.74 141.41, 549.59 142.81 C545.45 144.22, 541.15 145.59, 536.7 146.92 C532.25 148.25, 527.65 149.55, 522.91 150.8 C518.17 152.05, 513.29 153.26, 508.28 154.42 C503.28 155.58, 498.13 156.71, 492.87 157.78 C487.62 158.85, 482.23 159.88, 476.74 160.86 C471.26 161.84, 465.65 162.77, 459.96 163.65 C454.27 164.53, 448.46 165.36, 442.58 166.13 C436.7 166.91, 430.73 167.64, 424.69 168.31 C418.65 168.98, 412.52 169.6, 406.34 170.17 C400.16 170.73, 393.91 171.24, 387.61 171.7 C381.32 172.15, 374.96 172.55, 368.58 172.89 C362.2 173.23, 355.77 173.52, 349.32 173.75 C342.87 173.98, 336.39 174.15, 329.91 174.26 C323.42 174.38, 316.91 174.44, 310.42 174.44 C303.92 174.44, 297.41 174.38, 290.92 174.26 C284.44 174.15, 277.96 173.98, 271.51 173.75 C265.06 173.52, 258.63 173.23, 252.25 172.89 C245.87 172.55, 239.51 172.15, 233.22 171.7 C226.93 171.24, 220.67 170.73, 214.49 170.17 C208.31 169.6, 202.18 168.98, 196.14 168.31 C190.1 167.64, 184.13 166.91, 178.25 166.13 C172.37 165.36, 166.56 164.53, 160.87 163.65 C155.18 162.77, 149.57 161.84, 144.09 160.86 C138.6 159.88, 133.21 158.85, 127.96 157.78 C122.7 156.71, 117.56 155.58, 112.55 154.42 C107.54 153.26, 102.66 152.05, 97.92 150.8 C93.19 149.55, 88.58 148.25, 84.13 146.92 C79.68 145.59, 75.38 144.22, 71.24 142.81 C67.09 141.41, 63.1 139.96, 59.28 138.48 C55.47 137.01, 51.8 135.49, 48.32 133.95 C44.84 132.41, 41.53 130.84, 38.4 129.24 C35.27 127.64, 32.31 126.01, 29.54 124.35 C26.78 122.7, 24.19 121.02, 21.8 119.32 C19.41 117.63, 17.2 115.91, 15.19 114.17 C13.19 112.43, 11.37 110.68, 9.75 108.91 C8.14 107.14, 6.72 105.35, 5.5 103.56 C4.28 101.77, 3.26 99.96, 2.45 98.15 C1.63 96.34, 1.02 94.52, 0.61 92.69 C0.2 90.87, 0 89.04, 0 87.22 C0 85.39, 0.2 83.56, 0.61 81.74 C1.02 79.92, 1.63 78.1, 2.45 76.29 C3.26 74.48, 4.28 72.67, 5.5 70.87 C6.72 69.08, 8.14 67.3, 9.75 65.53 C11.37 63.76, 13.19 62, 15.19 60.27 C17.2 58.53, 19.41 56.81, 21.8 55.11 C24.19 53.41, 26.78 51.73, 29.54 50.08 C32.31 48.43, 35.27 46.8, 38.4 45.2 C41.53 43.6, 44.84 42.03, 48.32 40.48 C51.8 38.94, 55.47 37.43, 59.28 35.95 C63.1 34.48, 67.09 33.03, 71.24 31.62 C75.38 30.22, 79.68 28.84, 84.13 27.51 C88.58 26.18, 93.19 24.89, 97.92 23.64 C102.66 22.39, 107.54 21.18, 112.55 20.02 C117.56 18.85, 122.7 17.73, 127.96 16.66 C133.21 15.58, 138.6 14.56, 144.09 13.58 C149.57 12.6, 155.18 11.67, 160.87 10.79 C166.56 9.91, 172.37 9.08, 178.25 8.3 C184.13 7.52, 190.1 6.8, 196.14 6.12 C202.18 5.45, 208.31 4.83, 214.49 4.27 C220.67 3.7, 226.93 3.19, 233.22 2.74 C239.51 2.29, 245.87 1.89, 252.25 1.54 C258.63 1.2, 265.06 0.92, 271.51 0.69 C277.96 0.46, 284.44 0.29, 290.92 0.17 C297.41 0.06, 303.92 0, 310.42 0 C316.91 0, 323.42 0.06, 329.91 0.17 C336.39 0.29, 342.87 0.46, 349.32 0.69 C355.77 0.92, 362.2 1.2, 368.58 1.54 C374.96 1.89, 381.32 2.29, 387.61 2.74 C393.91 3.19, 400.16 3.7, 406.34 4.27 C412.52 4.83, 418.65 5.45, 424.69 6.12 C430.73 6.8, 436.7 7.52, 442.58 8.3 C448.46 9.08, 454.27 9.91, 459.96 10.79 C465.65 11.67, 471.26 12.6, 476.74 13.58 C482.23 14.56, 487.62 15.58, 492.87 16.66 C498.13 17.73, 503.28 18.85, 508.28 20.02 C513.29 21.18, 518.17 22.39, 522.91 23.64 C527.65 24.89, 532.25 26.18, 536.7 27.51 C541.15 28.84, 545.45 30.22, 549.59 31.62 C553.74 33.03, 557.73 34.48, 561.55 35.95 C565.37 37.43, 569.03 38.94, 572.51 40.48 C575.99 42.03, 579.3 43.6, 582.43 45.2 C585.56 46.8, 588.52 48.43, 591.29 50.08 C594.05 51.73, 596.64 53.41, 599.03 55.11 C601.42 56.81, 603.63 58.53, 605.64 60.27 C607.65 62, 609.46 63.76, 611.08 65.53 C612.69 67.3, 614.11 69.08, 615.33 70.87 C616.55 72.67, 617.57 74.48, 618.38 76.29 C619.2 78.1, 619.81 79.92, 620.22 81.74 C620.63 83.56, 620.73 86.31, 620.83 87.22 C620.93 88.13, 620.93 86.31, 620.83 87.22" stroke="#1e1e1e" stroke-width="4" fill="none"></path></g><g transform="translate(173.15838835871318 555.8715232559907) rotate(0 177.16670438631905 71.3779103080401)"><text x="0" y="99.92907443125605" font-family="Times New Roman" font-size="114.20465649286406px" fill="#1e1e1e" text-anchor="start" style="white-space: pre;" direction="ltr" dominant-baseline="alphabetic">fees</text></g><g stroke-linecap="round" transform="translate(10 779.6475928580439) rotate(0 326.66159284186085 82.55861811214845)"><path d="M213.59 5.79 C235.87 2.42, 266.35 0.95, 293.47 0.17 C320.6 -0.6, 349.58 0.01, 376.34 1.13 C403.11 2.25, 429.17 4.24, 454.06 6.92 C478.96 9.59, 503.99 12.92, 525.72 17.17 C547.46 21.43, 567.71 27.02, 584.47 32.44 C601.23 37.86, 615.58 43.45, 626.29 49.7 C637 55.96, 644.51 63.28, 648.72 69.95 C652.93 76.62, 653.77 82.94, 651.53 89.74 C649.3 96.55, 644.23 104.15, 635.31 110.79 C626.38 117.42, 613.32 123.87, 597.97 129.52 C582.62 135.18, 563.4 140.47, 543.21 144.71 C523.01 148.95, 500.84 152.03, 476.81 154.99 C452.77 157.94, 425.36 160.91, 398.98 162.43 C372.61 163.95, 345.53 164.25, 318.58 164.13 C291.63 164, 263.41 163.24, 237.28 161.67 C211.14 160.09, 184.99 158.24, 161.77 154.68 C138.55 151.12, 117.06 145.31, 97.94 140.31 C78.83 135.31, 61.05 130.35, 47.08 124.69 C33.11 119.03, 21.98 112.86, 14.12 106.38 C6.26 99.9, 0.99 92.75, -0.08 85.81 C-1.16 78.86, 1.76 71.42, 7.65 64.71 C13.54 57.99, 23.2 51.5, 35.25 45.53 C47.3 39.55, 62.35 33.97, 79.95 28.84 C97.56 23.72, 116.3 19.05, 140.86 14.79 C165.43 10.54, 210.36 5.2, 227.35 3.32 C244.34 1.45, 241.22 2.08, 242.83 3.55 M371.96 1.7 C398.15 1.49, 425.53 3.82, 450.48 6.19 C475.44 8.56, 499.75 11.93, 521.69 15.91 C543.63 19.89, 564.92 24.77, 582.13 30.07 C599.33 35.37, 613.89 41.31, 624.9 47.71 C635.92 54.1, 643.74 61.84, 648.2 68.46 C652.66 75.07, 653.74 80.83, 651.66 87.4 C649.59 93.97, 644.2 101.22, 635.77 107.88 C627.35 114.53, 615.81 121.28, 601.1 127.32 C586.38 133.35, 567.3 139.42, 547.48 144.08 C527.65 148.74, 506.1 152.03, 482.14 155.28 C458.19 158.53, 430.38 161.79, 403.75 163.58 C377.12 165.37, 349.58 165.98, 322.36 166 C295.14 166.03, 266.37 165.75, 240.42 163.71 C214.46 161.68, 190.04 157.41, 166.63 153.77 C143.22 150.13, 119.47 146.65, 99.94 141.86 C80.42 137.08, 63.55 130.79, 49.47 125.04 C35.39 119.3, 23.65 113.95, 15.47 107.41 C7.3 100.87, 2.16 92.8, 0.44 85.82 C-1.28 78.83, -0.42 72.17, 5.17 65.51 C10.76 58.85, 22.18 51.78, 33.99 45.86 C45.79 39.93, 58.75 34.87, 76 29.95 C93.24 25.03, 114.92 20.38, 137.45 16.32 C159.98 12.27, 186.08 8.13, 211.18 5.63 C236.29 3.12, 261.34 2.02, 288.07 1.3 C314.81 0.58, 357.87 1.34, 371.59 1.31 C385.32 1.28, 371.19 -0.12, 370.42 1.12" stroke="#1e1e1e" stroke-width="2" fill="none"></path></g><g transform="translate(101.88729714929559 814.9512102120552) rotate(0 218.36440833876486 61.89520519969119)"><text x="0" y="86.65328727956795" font-family="Times New Roman" font-size="99.03232831950622px" fill="#1e1e1e" text-anchor="start" style="white-space: pre;" direction="ltr" dominant-baseline="alphabetic">duration</text></g><g stroke-linecap="round"><g transform="translate(1004.3339023354911 535.4179575147755) rotate(0 -196.5843857598087 -179.63745929675952)"><path d="M0 0 C-110.97 -101.4, -221.94 -202.81, -393.17 -359.27 M0 0 C-150.21 -137.26, -300.41 -274.52, -393.17 -359.27" stroke="#1e1e1e" stroke-width="4" fill="none"></path></g></g><mask></mask><g stroke-linecap="round"><g transform="translate(994.1656430218313 586.2587369039238) rotate(0 -188.1108578808902 -83.03996552789931)"><path d="M0 0 C-83.55 -36.88, -167.1 -73.76, -376.22 -166.08 M0 0 C-81.61 -36.03, -163.22 -72.05, -376.22 -166.08" stroke="#1e1e1e" stroke-width="4" fill="none"></path></g></g><mask></mask><g stroke-linecap="round"><g transform="translate(987.3869758724418 640.4888498677665) rotate(0 -171.16399606523476 -3.3893982220888574)"><path d="M0 0 C-124.27 -2.46, -248.54 -4.92, -342.33 -6.78 M0 0 C-108.04 -2.14, -216.07 -4.28, -342.33 -6.78" stroke="#1e1e1e" stroke-width="4" fill="none"></path></g></g><mask></mask><g stroke-linecap="round"><g transform="translate(987.3869758724418 691.3296292569139) rotate(0 -164.38519962105738 77.95590051846375)"><path d="M0 0 C-96.58 45.8, -193.17 91.61, -328.77 155.91 M0 0 C-73.95 35.07, -147.9 70.14, -328.77 155.91" stroke="#1e1e1e" stroke-width="4" fill="none"></path></g></g><mask></mask><g stroke-linecap="round" transform="translate(2671.30546697925 262.78326852545706) rotate(0 457.09643118878785 324.39062557597845)"><path d="M458 0 C602.69 103.08, 747.39 206.17, 914.19 325 M458 0 C605.68 105.21, 753.37 210.43, 914.19 325 M914.19 325 C787.47 414.94, 660.75 504.88, 458 648.78 M914.19 325 C786.4 415.7, 658.6 506.4, 458 648.78 M458 648.78 C294.38 533.11, 130.76 417.44, 0 325 M458 648.78 C357.63 577.83, 257.26 506.87, 0 325 M0 325 C170.62 203.92, 341.25 82.85, 458 0 M0 325 C121.48 238.8, 242.95 152.6, 458 0" stroke="#1e1e1e" stroke-width="4" fill="none"></path></g><g transform="translate(2774.5206404589258 513.4492121351477) rotate(0 346.43253731492314 60.51861882473804)"><text x="0" y="84.72606635463347" font-family="Times New Roman" font-size="96.82979011958112px" fill="#1e1e1e" text-anchor="start" style="white-space: pre;" direction="ltr" dominant-baseline="alphabetic">subscribes to</text></g><g stroke-linecap="round"><g transform="translate(3585.4986105963144 590.6795289408601) rotate(0 311.5060575249993 -1.1934914827697867)"><path d="M0 0 C152.19 -0.58, 304.38 -1.17, 623.01 -2.39 M0 0 C155.04 -0.59, 310.08 -1.19, 623.01 -2.39" stroke="#1e1e1e" stroke-width="4" fill="none"></path></g></g><mask></mask><g stroke-linecap="round"><g transform="translate(2672.5542456472695 580.2103815051341) rotate(0 -312.35400364684665 2.5604348253091302)"><path d="M0 0 C-190.28 1.56, -380.56 3.12, -624.71 5.12 M0 0 C-195.74 1.6, -391.47 3.21, -624.71 5.12" stroke="#1e1e1e" stroke-width="4" fill="none"></path></g></g><mask></mask><g stroke-linecap="round" transform="translate(1083.0077317903283 2478.359654430029) rotate(0 445.3899450816381 87.45311104221491)"><path d="M0 0 C188.55 0.21, 377.46 0.02, 890.78 0 M0 0 C242.78 2.24, 485.38 2.87, 890.78 0 M890.78 0 C893.25 42.47, 890.18 83.74, 890.78 174.91 M890.78 0 C892.51 69.31, 891.93 137.86, 890.78 174.91 M890.78 174.91 C545.43 177.86, 198.95 178, 0 174.91 M890.78 174.91 C572.8 174.3, 254.52 173.88, 0 174.91 M0 174.91 C0.65 132.3, -1.46 92.65, 0 0 M0 174.91 C2 111.01, 0.5 49.52, 0 0" stroke="#1e1e1e" stroke-width="2" fill="none"></path></g><g stroke-linecap="round" transform="translate(187.59288017857602 1972.979747493282) rotate(0 220.27267455582134 97.5891909165939)"><path d="M240.06 0.07 C261.14 -0.75, 285.16 3.18, 305.39 6.75 C325.62 10.31, 344.81 15.1, 361.42 21.44 C378.03 27.78, 393.45 36.46, 405.03 44.77 C416.62 53.08, 424.86 62.06, 430.93 71.31 C437 80.56, 441.56 90.78, 441.46 100.25 C441.36 109.72, 437.21 119.25, 430.35 128.13 C423.48 137.01, 412.95 145.59, 400.27 153.54 C387.59 161.49, 371.47 169.78, 354.25 175.85 C337.02 181.91, 317.01 186.77, 296.92 189.93 C276.84 193.09, 255.23 194.42, 233.72 194.81 C212.2 195.21, 188.91 194.52, 167.84 192.3 C146.77 190.08, 125.96 186.32, 107.32 181.49 C88.67 176.66, 70.45 170.41, 55.95 163.3 C41.46 156.19, 29.51 147.76, 20.37 138.84 C11.22 129.92, 3.85 119.48, 1.08 109.79 C-1.7 100.1, -0.17 90.12, 3.73 80.7 C7.62 71.27, 14.84 61.6, 24.44 53.24 C34.05 44.89, 46.38 37.52, 61.34 30.55 C76.29 23.58, 95.37 16.06, 114.17 11.42 C132.97 6.77, 151.03 4.54, 174.16 2.68 C197.28 0.82, 237.53 -0.09, 252.93 0.24 C268.32 0.57, 266.84 2.75, 266.55 4.65 M315.29 9.74 C335.47 11.99, 354.21 19.19, 369.93 25.4 C385.66 31.61, 399.11 38.72, 409.66 46.99 C420.21 55.25, 428.27 65.64, 433.24 74.99 C438.21 84.33, 440.82 93.47, 439.49 103.06 C438.16 112.64, 433.15 123.54, 425.27 132.47 C417.39 141.4, 405.69 148.96, 392.22 156.63 C378.75 164.3, 362.15 172.59, 344.44 178.49 C326.72 184.4, 306.51 189.52, 285.95 192.06 C265.4 194.61, 242.47 193.98, 221.12 193.77 C199.77 193.57, 178.22 193.22, 157.86 190.85 C137.51 188.49, 117.23 184.81, 98.97 179.6 C80.7 174.4, 61.94 167.4, 48.27 159.62 C34.61 151.84, 25.02 141.85, 16.98 132.93 C8.93 124.02, 1.75 115.39, -0.01 106.13 C-1.76 96.87, 1.89 86.66, 6.44 77.38 C10.99 68.1, 16.84 58.72, 27.28 50.46 C37.72 42.2, 53.31 34.64, 69.09 27.81 C84.88 20.99, 102.73 13.92, 122.02 9.53 C141.31 5.14, 163.31 2.67, 184.82 1.46 C206.33 0.26, 229.64 1.09, 251.06 2.32 C272.49 3.55, 303.34 7.62, 313.37 8.85 C323.4 10.07, 312.45 8.18, 311.26 9.66" stroke="#1e1e1e" stroke-width="2" fill="none"></path></g><g transform="translate(222.70737267932418 2023.1687052116686) rotate(0 177.37741776529344 50.119013422990065)"><text x="0" y="70.16661879218563" font-family="Times New Roman" font-size="80.19042147678358px" fill="#1e1e1e" text-anchor="start" style="white-space: pre;" direction="ltr" dominant-baseline="alphabetic">class_id</text></g><g stroke-linecap="round" transform="translate(140.67614604909204 2224.73326798346) rotate(0 269.6603479218437 88.60407909619153)"><path d="M223.25 0.41 C245.11 -2.08, 272.6 0.06, 296.45 1.12 C320.3 2.19, 343.69 3.91, 366.36 6.83 C389.02 9.75, 412.77 13.99, 432.46 18.65 C452.14 23.32, 469.85 28.73, 484.48 34.83 C499.12 40.92, 511.42 47.7, 520.26 55.22 C529.1 62.75, 534.96 71.84, 537.5 79.98 C540.04 88.13, 539.29 96.41, 535.48 104.09 C531.68 111.77, 524.89 118.98, 514.68 126.05 C504.47 133.11, 490.12 140.35, 474.22 146.46 C458.31 152.58, 439.58 158.2, 419.27 162.72 C398.96 167.23, 375.48 171.06, 352.34 173.54 C329.21 176.03, 304.8 177.52, 280.46 177.63 C256.12 177.74, 229.83 176.21, 206.31 174.18 C182.79 172.15, 160.25 169.27, 139.34 165.43 C118.43 161.59, 98.21 156.54, 80.84 151.14 C63.47 145.74, 47.15 140.01, 35.11 133.03 C23.07 126.04, 14.59 116.95, 8.6 109.22 C2.61 101.49, -1.31 94.61, -0.83 86.63 C-0.36 78.65, 3.92 68.95, 11.43 61.34 C18.94 53.72, 30.78 47.33, 44.24 40.94 C57.71 34.54, 74.02 28.24, 92.23 22.94 C110.44 17.65, 130.29 12.71, 153.49 9.15 C176.7 5.59, 217.09 2.61, 231.45 1.59 C245.81 0.58, 239.14 1.78, 239.64 3.08 M167.98 5.39 C187.83 1.25, 215.09 1.39, 239.06 0.48 C263.03 -0.42, 287.99 -1.46, 311.81 -0.05 C335.64 1.36, 359.94 5.16, 382 8.96 C404.07 12.76, 425.72 17.93, 444.21 22.76 C462.71 27.59, 479.2 31.61, 492.97 37.96 C506.74 44.31, 518.93 52.88, 526.84 60.85 C534.75 68.82, 539.68 77.67, 540.44 85.76 C541.19 93.86, 536.93 101.99, 531.35 109.42 C525.77 116.85, 518.67 123.37, 506.98 130.34 C495.3 137.3, 478.22 145.22, 461.25 151.2 C444.28 157.18, 426.31 162.16, 405.17 166.22 C384.04 170.27, 358.17 173.48, 334.42 175.51 C310.68 177.55, 286.92 178.87, 262.71 178.42 C238.51 177.98, 212.52 175.33, 189.2 172.82 C165.88 170.32, 143.08 167.39, 122.82 163.37 C102.55 159.36, 83.73 154.84, 67.63 148.76 C51.53 142.67, 36.98 134.5, 26.23 126.87 C15.49 119.24, 7.13 110.81, 3.17 102.98 C-0.79 95.16, -0.21 87.55, 2.48 79.9 C5.16 72.24, 10.94 64.42, 19.3 57.04 C27.66 49.66, 38.15 42.17, 52.63 35.61 C67.1 29.05, 86.88 22.73, 106.13 17.68 C125.38 12.64, 157.41 7.05, 168.12 5.34 C178.83 3.63, 168.47 5.9, 170.4 7.4" stroke="#1e1e1e" stroke-width="2" fill="none"></path></g><g transform="translate(201.26869193022162 2262.42879746353) rotate(0 218.32702930028796 49.581517039989194)"><text x="0" y="69.41412385598494" font-family="Times New Roman" font-size="79.33042726398278px" fill="#1e1e1e" text-anchor="start" style="white-space: pre;" direction="ltr" dominant-baseline="alphabetic">class_name</text></g><g stroke-linecap="round"><g transform="translate(239.44692208119136 2111.679806326021) rotate(0 139.63108846692933 0)"><path d="M1.1 0.94 C47.51 0.8, 233.13 0.51, 279.4 0.3 M0.22 0.39 C46.4 0.38, 232.29 -1.75, 278.53 -1.67" stroke="#1e1e1e" stroke-width="2" fill="none"></path></g></g><mask></mask><g stroke-linecap="round" transform="translate(173.16070377922733 2465.363762493873) rotate(0 245.1067125515135 80.5363291759013)"><path d="M145.79 7.6 C164.17 3.69, 189.54 2.18, 212.38 1.16 C235.21 0.13, 259.89 0.43, 282.82 1.47 C305.75 2.5, 329.33 4.16, 349.95 7.37 C370.58 10.58, 389.33 15.8, 406.55 20.73 C423.77 25.67, 440.94 30.82, 453.27 36.99 C465.6 43.15, 474.36 50.34, 480.54 57.72 C486.72 65.1, 490.45 73.66, 490.34 81.28 C490.24 88.9, 486.76 96.31, 479.93 103.42 C473.09 110.52, 461.84 117.61, 449.34 123.93 C436.83 130.25, 422.36 136.41, 404.87 141.33 C387.38 146.25, 365.45 150.33, 344.37 153.46 C323.3 156.59, 301.24 159.08, 278.43 160.1 C255.62 161.12, 230.41 160.72, 207.49 159.58 C184.57 158.44, 161.83 156.52, 140.92 153.28 C120.01 150.05, 99.33 145.18, 82.04 140.17 C64.75 135.17, 49.39 129.61, 37.2 123.24 C25 116.86, 14.92 109.03, 8.87 101.9 C2.82 94.76, 0.74 88.02, 0.89 80.42 C1.03 72.81, 3.22 63.58, 9.73 56.24 C16.25 48.9, 27.29 42.46, 39.98 36.36 C52.67 30.26, 66.34 24.78, 85.87 19.66 C105.4 14.54, 142.97 7.95, 157.18 5.63 C171.39 3.3, 169.48 4.38, 171.13 5.71 M195.86 2.7 C216.56 0.13, 243.72 -0.79, 266.96 -0.37 C290.2 0.04, 314.01 2.22, 335.31 5.19 C356.62 8.15, 376.73 12.58, 394.78 17.4 C412.83 22.21, 429.97 28.28, 443.62 34.09 C457.27 39.9, 469.05 45.2, 476.68 52.23 C484.3 59.27, 488.04 68.4, 489.39 76.3 C490.74 84.19, 489.79 92.53, 484.79 99.61 C479.78 106.7, 470.86 112.21, 459.34 118.81 C447.82 125.4, 432.2 133.46, 415.65 139.16 C399.09 144.87, 380.3 149.53, 360.02 153.05 C339.74 156.56, 316.71 158.87, 293.97 160.25 C271.23 161.63, 246.44 161.88, 223.57 161.33 C200.71 160.78, 178.25 159.82, 156.79 156.94 C135.32 154.05, 113.03 149, 94.75 144.03 C76.47 139.06, 60.51 133.06, 47.1 127.13 C33.68 121.21, 22.12 115.64, 14.28 108.48 C6.43 101.32, 1.43 92.04, 0.03 84.18 C-1.38 76.32, 0.57 68.33, 5.87 61.31 C11.16 54.29, 20.43 48.48, 31.8 42.05 C43.16 35.62, 57.35 28.41, 74.06 22.74 C90.78 17.07, 111.52 11.65, 132.09 8.03 C152.66 4.4, 186.42 1.98, 197.49 0.99 C208.56 0.01, 197.61 0.58, 198.52 2.13" stroke="#1e1e1e" stroke-width="2" fill="none"></path></g><g transform="translate(228.23606002090582 2499.626965741789) rotate(0 198.44749450683594 45.06692488771387)"><text x="0" y="63.09369484279989" font-family="Times New Roman" font-size="72.10707982034273px" fill="#1e1e1e" text-anchor="start" style="white-space: pre;" direction="ltr" dominant-baseline="alphabetic">class_type</text></g><g stroke-linecap="round" transform="translate(68.39862610814976 2674.8885422672683) rotate(0 372.78560398860577 90.35763346053682)"><path d="M333.2 -0.1 C359.67 -2.5, 390.29 -1.1, 418.62 -0.14 C446.95 0.83, 476.23 3.22, 503.19 5.7 C530.15 8.18, 556.7 11.01, 580.37 14.74 C604.04 18.48, 625.59 23.02, 645.21 28.11 C664.82 33.19, 683.87 39.19, 698.05 45.25 C712.22 51.31, 722.28 57.77, 730.24 64.49 C738.19 71.21, 744.33 78.61, 745.77 85.56 C747.21 92.51, 744.24 99.35, 738.87 106.19 C733.51 113.03, 725.2 120.27, 713.58 126.6 C701.96 132.93, 686.5 138.61, 669.17 144.14 C651.85 149.68, 631.66 155.37, 609.64 159.81 C587.61 164.25, 562.5 167.59, 537.02 170.8 C511.54 174.01, 484.77 177.56, 456.77 179.06 C428.76 180.56, 397.83 179.97, 369.01 179.81 C340.18 179.65, 311.57 179.52, 283.8 178.1 C256.04 176.67, 227.96 174.37, 202.42 171.25 C176.89 168.14, 152.37 163.96, 130.58 159.42 C108.79 154.89, 88.42 149.56, 71.69 144.04 C54.95 138.51, 41.32 132.69, 30.17 126.26 C19.02 119.83, 9.81 112.56, 4.77 105.46 C-0.27 98.37, -2.14 90.59, -0.06 83.68 C2.02 76.77, 8.77 70.44, 17.27 64.01 C25.78 57.58, 36.61 51.17, 50.97 45.1 C65.33 39.02, 83.45 32.67, 103.42 27.56 C123.38 22.45, 146.57 18.09, 170.76 14.42 C194.95 10.76, 215.58 8.03, 248.56 5.57 C281.53 3.12, 342.35 0.15, 368.61 -0.3 C394.87 -0.75, 405.85 1.21, 406.13 2.88 M197.31 11.97 C218.53 7.55, 249.98 5.69, 277.5 3.79 C305.02 1.9, 333.71 0.68, 362.42 0.6 C391.13 0.52, 421.75 2.01, 449.77 3.3 C477.79 4.59, 504.66 5.73, 530.53 8.34 C556.41 10.95, 582.47 14.43, 605 18.95 C627.53 23.47, 648.14 30.03, 665.73 35.45 C683.31 40.88, 698.58 45.51, 710.52 51.5 C722.46 57.49, 731.57 64.25, 737.36 71.39 C743.15 78.54, 746.13 87.28, 745.26 94.37 C744.39 101.46, 739.43 107.64, 732.15 113.94 C724.86 120.24, 715.02 126.15, 701.57 132.15 C688.13 138.15, 670.6 144.73, 651.48 149.95 C632.35 155.16, 610.19 159.22, 586.8 163.43 C563.41 167.63, 537.73 172.66, 511.14 175.19 C484.55 177.72, 455.67 177.62, 427.26 178.59 C398.84 179.57, 369.52 181.43, 340.65 181.05 C311.77 180.67, 281.33 178.53, 254.02 176.28 C226.72 174.04, 201.21 171.13, 176.83 167.59 C152.45 164.05, 127.85 160.02, 107.74 155.05 C87.62 150.09, 70.98 143.78, 56.16 137.81 C41.34 131.83, 27.96 126, 18.83 119.21 C9.69 112.42, 3.84 103.96, 1.35 97.06 C-1.13 90.17, -0.52 84.37, 3.91 77.82 C8.33 71.26, 17.25 64.52, 27.88 57.74 C38.51 50.95, 51.24 42.99, 67.68 37.11 C84.13 31.22, 105.09 26.85, 126.53 22.43 C147.97 18.01, 184.14 12.26, 196.31 10.58 C208.49 8.91, 196.5 11.17, 199.58 12.4" stroke="#1e1e1e" stroke-width="2" fill="none"></path></g><g transform="translate(113.65242829269755 2725.5205859895723) rotate(0 330.8062280729682 45.06692488771387)"><text x="0" y="63.09369484279989" font-family="Times New Roman" font-size="72.10707982034273px" fill="#1e1e1e" text-anchor="start" style="white-space: pre;" direction="ltr" dominant-baseline="alphabetic">difficulty_level</text></g><g stroke-linecap="round" transform="translate(176.43465920347694 2890.9604835716764) rotate(0 300.76158192505443 90.35763346053682)"><path d="M317.55 0.83 C342.56 -0.5, 369.32 1.46, 393.92 3.61 C418.51 5.76, 443.24 9.42, 465.14 13.73 C487.03 18.03, 507.82 23.52, 525.27 29.42 C542.71 35.33, 558.11 42.04, 569.83 49.16 C581.55 56.28, 590.51 64.51, 595.58 72.15 C600.66 79.78, 601.83 87.3, 600.25 94.97 C598.67 102.64, 593.89 110.86, 586.11 118.17 C578.32 125.48, 567.48 132.32, 553.54 138.84 C539.59 145.35, 521.77 151.82, 502.45 157.26 C483.13 162.71, 460.7 168.06, 437.63 171.51 C414.55 174.96, 389.63 176.57, 364 177.99 C338.36 179.41, 309.84 180.3, 283.82 180.04 C257.79 179.79, 232.4 178.8, 207.83 176.46 C183.27 174.12, 158.27 170.44, 136.42 166.01 C114.57 161.59, 94.17 155.53, 76.74 149.9 C59.32 144.27, 43.65 139.15, 31.87 132.24 C20.1 125.33, 11.38 116.2, 6.07 108.45 C0.77 100.69, -1.32 93.23, 0.06 85.71 C1.44 78.19, 6.24 70.75, 14.37 63.32 C22.51 55.89, 34.56 47.7, 48.88 41.12 C63.2 34.54, 81.13 29.1, 100.3 23.84 C119.47 18.58, 140.75 13.18, 163.91 9.55 C187.06 5.92, 208.77 3.6, 239.23 2.06 C269.7 0.51, 323.93 -0.08, 346.69 0.29 C369.44 0.66, 376.36 2.8, 375.76 4.27 M188.8 6.82 C209.64 2.19, 236.78 0.4, 262.46 -0.79 C288.14 -1.99, 317.03 -1.39, 342.9 -0.32 C368.77 0.75, 394.1 2.19, 417.68 5.64 C441.25 9.09, 464.02 15.09, 484.34 20.38 C504.65 25.67, 523.59 31.17, 539.56 37.36 C555.54 43.55, 570.41 50.47, 580.2 57.51 C589.99 64.54, 594.99 72.07, 598.28 79.55 C601.58 87.03, 603.62 94.91, 599.96 102.39 C596.31 109.86, 586.8 117.15, 576.35 124.38 C565.9 131.62, 553 139.51, 537.25 145.79 C521.49 152.07, 502.34 157.16, 481.82 162.08 C461.31 166.99, 438.18 172.06, 414.17 175.26 C390.17 178.46, 363.65 180.27, 337.79 181.26 C311.94 182.25, 284.59 182.29, 259.03 181.18 C233.48 180.07, 208.43 177.83, 184.48 174.61 C160.54 171.39, 136.13 166.59, 115.36 161.85 C94.6 157.1, 75.5 152.46, 59.92 146.13 C44.33 139.79, 31.7 131.25, 21.85 123.83 C12.01 116.42, 4.13 109.33, 0.83 101.65 C-2.47 93.96, -1.96 85.36, 2.05 77.72 C6.05 70.08, 14.61 62.86, 24.87 55.8 C35.13 48.75, 47.7 41.88, 63.61 35.4 C79.53 28.92, 99.64 21.68, 120.37 16.9 C141.09 12.13, 176.48 8.03, 187.94 6.75 C199.41 5.46, 187.1 8.06, 189.17 9.21" stroke="#1e1e1e" stroke-width="2" fill="none"></path></g><g transform="translate(254.4265169955513 2935.0449911042233) rotate(0 330.8062280729682 45.06692488771387)"><text x="0" y="63.09369484279989" font-family="Times New Roman" font-size="72.10707982034273px" fill="#1e1e1e" text-anchor="start" style="white-space: pre;" direction="ltr" dominant-baseline="alphabetic">maxCapacity</text></g><g stroke-linecap="round"><g transform="translate(1099.9662759893856 2479.581842923504) rotate(0 -234.45034322455805 -202.55580015928172)"><path d="M0 0 C-119.94 -103.62, -239.87 -207.24, -468.9 -405.11 M0 0 C-125.25 -108.21, -250.51 -216.43, -468.9 -405.11" stroke="#1e1e1e" stroke-width="4" fill="none"></path></g></g><mask></mask><g stroke-linecap="round"><g transform="translate(1076.3047943010915 2542.626198688653) rotate(0 -198.06596701008084 -114.58363172820737)"><path d="M0 0 C-134.97 -78.08, -269.94 -156.16, -396.13 -229.17 M0 0 C-133.7 -77.35, -267.39 -154.69, -396.13 -229.17" stroke="#1e1e1e" stroke-width="4" fill="none"></path></g></g><mask></mask><g stroke-linecap="round"><g transform="translate(1076.3047943010915 2588.4597013344355) rotate(0 -206.25051213352424 -18.006036737449904)"><path d="M0 0 C-122.83 -10.72, -245.65 -21.45, -412.5 -36.01 M0 0 C-84.07 -7.34, -168.13 -14.68, -412.5 -36.01" stroke="#1e1e1e" stroke-width="4" fill="none"></path></g></g><mask></mask><g stroke-linecap="round"><g transform="translate(1076.3047943010915 2624.471649923087) rotate(0 -129.3157754845315 67.113245034986)"><path d="M0 0 C-85.66 44.46, -171.33 88.92, -258.63 134.23 M0 0 C-95.63 49.63, -191.26 99.26, -258.63 134.23" stroke="#1e1e1e" stroke-width="4" fill="none"></path></g></g><mask></mask><g stroke-linecap="round"><g transform="translate(1122.1382969468737 2660.483598511739) rotate(0 -171.8754475923115 160.41713437398994)"><path d="M0 0 C-133.56 124.65, -267.11 249.31, -343.75 320.83 M0 0 C-124.29 116.01, -248.59 232.01, -343.75 320.83" stroke="#1e1e1e" stroke-width="4" fill="none"></path></g></g><mask></mask><g transform="translate(1161.3264812799484 2502.575910744661) rotate(0 348.09771728515625 60.8611837774788)"><text x="0" y="85.20565728846968" font-family="Times New Roman" font-size="97.37789404396536px" fill="#1e1e1e" text-anchor="start" style="white-space: pre;" direction="ltr" dominant-baseline="alphabetic">Fitness_class</text></g><g stroke-linecap="round" transform="translate(2513.5490002297106 1439.4892557991934) rotate(0 501.84367373704526 243.85332179598572)"><path d="M502 0 C625.48 60.05, 748.95 120.11, 1003.69 244 M502 0 C677.66 85.44, 853.33 170.87, 1003.69 244 M1003.69 244 C875.75 306.15, 747.81 368.3, 502 487.71 M1003.69 244 C808.24 338.94, 612.79 433.89, 502 487.71 M502 487.71 C308.78 393.9, 115.56 300.1, 0 244 M502 487.71 C357.73 417.67, 213.46 347.63, 0 244 M0 244 C132.21 179.74, 264.42 115.48, 502 0 M0 244 C181.76 155.65, 363.53 67.3, 502 0" stroke="#1e1e1e" stroke-width="4" fill="none"></path></g><g transform="translate(2768.0050272267176 1580.8530861026557) rotate(0 254.36939429697782 82.45870946693594)"><text x="0" y="115.44219325370973" font-family="Times New Roman" font-size="131.93393514709683px" fill="#1e1e1e" text-anchor="start" style="white-space: pre;" direction="ltr" dominant-baseline="alphabetic">attends</text></g><g stroke-linecap="round"><g transform="translate(2518.2034998913614 1685.5806965438278) rotate(0 -363.9894104470609 395.57442773013736)"><path d="M0 0 C-200.1 217.46, -400.19 434.92, -727.98 791.15 M0 0 C-279.38 303.62, -558.75 607.24, -727.98 791.15" stroke="#1e1e1e" stroke-width="4" fill="none"></path></g></g><mask></mask><g stroke-linecap="round"><g transform="translate(4295.341051029558 646.9157678840156) rotate(0 -389.0491012881057 518.7320434394419)"><path d="M0 0 C-228.52 304.69, -457.03 609.38, -778.1 1037.46 M0 0 C-230.11 306.81, -460.22 613.62, -778.1 1037.46" stroke="#1e1e1e" stroke-width="4" fill="none"></path></g></g><mask></mask><g stroke-linecap="round" transform="translate(4286.264134198525 3924.8404854864075) rotate(0 315.9188638462165 78.97975667558148)"><path d="M0 0 C150.02 0, 300.05 0, 631.84 0 M0 0 C128.54 0, 257.08 0, 631.84 0 M631.84 0 C631.84 53.63, 631.84 107.25, 631.84 157.96 M631.84 0 C631.84 52.05, 631.84 104.09, 631.84 157.96 M631.84 157.96 C504.58 157.96, 377.33 157.96, 0 157.96 M631.84 157.96 C440.27 157.96, 248.71 157.96, 0 157.96 M0 157.96 C0 103.54, 0 49.12, 0 0 M0 157.96 C0 118.58, 0 79.21, 0 0" stroke="#1e1e1e" stroke-width="4" fill="none"></path></g><g transform="translate(4397.262623117662 3937.6479783838276) rotate(0 205.05631275614815 66.58099000595303)"><text x="0" y="93.21338600833427" font-family="Times New Roman" font-size="106.52958400952488px" fill="#1e1e1e" text-anchor="start" style="white-space: pre;" direction="ltr" dominant-baseline="alphabetic">Trainer</text></g><g stroke-linecap="round" transform="translate(5199.473427157198 3943.84606847089) rotate(0 297.043021452836 68.27823697575604)"><path d="M391.7 3.63 C416.17 4.62, 440.04 8.89, 461.58 12.21 C483.13 15.52, 504.07 19.36, 520.98 23.55 C537.88 27.73, 551.67 32.07, 563.02 37.32 C574.37 42.57, 584.17 49.15, 589.08 55.03 C594 60.91, 594.32 66.61, 592.5 72.59 C590.67 78.57, 586.22 85.26, 578.13 90.89 C570.04 96.53, 558.23 101.6, 543.94 106.4 C529.65 111.21, 511.75 115.77, 492.4 119.74 C473.04 123.71, 450.61 127.76, 427.81 130.22 C405.01 132.68, 380.65 133.36, 355.61 134.48 C330.57 135.6, 303.01 137.3, 277.55 136.96 C252.08 136.63, 226.87 134.52, 202.84 132.48 C178.8 130.43, 154.69 128, 133.31 124.69 C111.94 121.38, 91.6 116.89, 74.57 112.63 C57.55 108.37, 42.62 104.35, 31.15 99.12 C19.68 93.89, 10.85 86.97, 5.75 81.24 C0.65 75.52, -1.26 70.55, 0.53 64.78 C2.33 59, 8.43 52.21, 16.52 46.61 C24.61 41, 34.91 36.12, 49.06 31.13 C63.2 26.15, 81.85 20.89, 101.39 16.72 C120.93 12.54, 143.55 8.74, 166.3 6.08 C189.05 3.42, 213.05 1.85, 237.89 0.76 C262.72 -0.32, 287.17 -1.01, 315.33 -0.44 C343.49 0.12, 389.92 2.81, 406.85 4.18 C423.78 5.55, 418.9 6.53, 416.91 7.76 M229.12 1.57 C251.81 -0.82, 279.64 0.29, 305.38 0.31 C331.12 0.33, 358.85 0.06, 383.56 1.66 C408.26 3.27, 431.71 6.69, 453.6 9.95 C475.5 13.21, 497.29 17.12, 514.94 21.23 C532.6 25.34, 547.87 29.56, 559.54 34.61 C571.21 39.66, 579 45.78, 584.95 51.53 C590.9 57.28, 595.92 62.95, 595.24 69.09 C594.57 75.24, 588.52 82.43, 580.92 88.38 C573.33 94.32, 563.15 99.61, 549.68 104.77 C536.21 109.93, 518.83 115.27, 500.09 119.32 C481.35 123.36, 459.89 126.38, 437.25 129.02 C414.6 131.67, 389 133.91, 364.23 135.19 C339.46 136.47, 314.18 137.18, 288.61 136.7 C263.05 136.21, 235.67 134.1, 210.84 132.29 C186.01 130.48, 161.38 128.95, 139.65 125.83 C117.91 122.71, 97.76 117.65, 80.43 113.55 C63.1 109.45, 47.68 106.42, 35.68 101.24 C23.69 96.06, 14.43 88.55, 8.47 82.47 C2.52 76.39, -0.8 70.55, -0.05 64.77 C0.71 59, 5.68 53.35, 13.03 47.8 C20.37 42.25, 30.77 36.41, 44.02 31.49 C57.27 26.57, 73.81 21.98, 92.52 18.26 C111.22 14.54, 133.49 11.69, 156.25 9.16 C179.01 6.62, 216.91 4.26, 229.07 3.05 C241.23 1.85, 228.15 0.92, 229.21 1.95" stroke="#1e1e1e" stroke-width="2" fill="none"></path></g><g transform="translate(5246.204536154306 3950.987330614622) rotate(0 234.94177048804886 50.80442914326795)"><text x="0" y="71.12620080057569" font-family="Times New Roman" font-size="81.28708662922936px" fill="#1e1e1e" text-anchor="start" style="white-space: pre;" direction="ltr" dominant-baseline="alphabetic">trainer_id</text></g><g stroke-linecap="round" transform="translate(5193.367386408558 3764.713622892041) rotate(0 230.12897221414096 65.9522308704627)"><path d="M235.06 0.36 C256.58 -0.81, 280.1 0.62, 301.57 2.6 C323.04 4.59, 345.55 8.44, 363.88 12.28 C382.22 16.13, 397.98 20.45, 411.58 25.68 C425.18 30.92, 437.48 37.57, 445.48 43.7 C453.48 49.83, 458.37 56.08, 459.58 62.45 C460.79 68.83, 458.28 75.57, 452.75 81.94 C447.22 88.32, 437.88 95.28, 426.4 100.68 C414.92 106.08, 400.64 110.05, 383.88 114.34 C367.12 118.63, 346.27 123.66, 325.84 126.42 C305.41 129.17, 283.48 130.15, 261.31 130.84 C239.13 131.54, 215.13 131.7, 192.79 130.58 C170.44 129.46, 147.53 126.88, 127.23 124.12 C106.94 121.37, 87.4 118.5, 70.99 114.06 C54.59 109.62, 39.82 103.09, 28.8 97.47 C17.77 91.85, 9.31 86.6, 4.82 80.37 C0.34 74.13, -0.1 66.53, 1.87 60.05 C3.84 53.57, 8.08 47.56, 16.64 41.49 C25.21 35.42, 38.56 28.92, 53.26 23.64 C67.96 18.36, 86.17 13.42, 104.86 9.81 C123.54 6.21, 142.76 3.75, 165.37 2.03 C187.98 0.31, 226.67 -0.32, 240.54 -0.51 C254.41 -0.69, 248.78 -0.34, 248.59 0.92 M181.26 1.9 C201.42 -0.32, 228.55 -0.53, 251.15 0.03 C273.75 0.59, 295.84 2.94, 316.87 5.24 C337.9 7.55, 359.74 9.81, 377.35 13.84 C394.96 17.87, 409.99 23.85, 422.52 29.42 C435.06 34.99, 446.16 41.23, 452.57 47.27 C458.98 53.31, 461.82 59.32, 460.99 65.66 C460.17 72, 454.55 79.13, 447.62 85.31 C440.68 91.48, 432.32 97.16, 419.39 102.7 C406.47 108.25, 388.19 114.32, 370.09 118.58 C351.98 122.84, 331.91 125.86, 310.76 128.27 C289.6 130.69, 265.78 132.69, 243.14 133.08 C220.5 133.46, 196.96 132.27, 174.94 130.58 C152.92 128.9, 130.23 126.36, 111.02 122.96 C91.8 119.56, 74.69 115.3, 59.64 110.18 C44.59 105.05, 30.47 98.21, 20.7 92.22 C10.94 86.22, 4.01 80.65, 1.07 74.21 C-1.88 67.76, -0.95 59.75, 3.01 53.55 C6.98 47.35, 14.57 42.81, 24.85 37.03 C35.12 31.25, 49.09 23.89, 64.65 18.87 C80.21 13.85, 98.47 9.95, 118.2 6.91 C137.93 3.87, 172.22 1.49, 183.03 0.65 C193.85 -0.19, 182.55 0.72, 183.09 1.88" stroke="#1e1e1e" stroke-width="2" fill="none"></path></g><g transform="translate(5305.605973848018 3767.047163391084) rotate(0 146.2430522177824 61.47155475371801)"><text x="0" y="86.06017665520534" font-family="Times New Roman" font-size="98.35448760594895px" fill="#1e1e1e" text-anchor="start" style="white-space: pre;" direction="ltr" dominant-baseline="alphabetic">name</text></g><g stroke-linecap="round" transform="translate(5170.937951930908 3564.044072901901) rotate(0 326.66159284186097 82.558618112148)"><path d="M385.04 1.45 C411.17 1.39, 436.99 4.46, 461.44 7.4 C485.88 10.34, 510.55 14.75, 531.72 19.11 C552.89 23.47, 572.38 28.16, 588.46 33.55 C604.54 38.95, 618.07 45.08, 628.21 51.49 C638.35 57.9, 645.43 65.41, 649.3 72.04 C653.17 78.66, 654.42 84.47, 651.42 91.24 C648.41 98, 640.83 106.2, 631.25 112.63 C621.68 119.07, 609.41 124.42, 593.98 129.84 C578.55 135.27, 559.39 140.79, 538.67 145.17 C517.95 149.55, 494.14 152.98, 469.66 156.12 C445.19 159.27, 418.47 162.63, 391.82 164.03 C365.18 165.44, 336.9 164.86, 309.78 164.56 C282.67 164.26, 254.83 164.17, 229.14 162.23 C203.45 160.3, 178.77 156.58, 155.63 152.95 C132.48 149.32, 109.11 145.48, 90.28 140.46 C71.46 135.45, 55.71 129.1, 42.69 122.86 C29.67 116.61, 19.43 109.65, 12.19 102.99 C4.94 96.33, -0.2 89.7, -0.8 82.92 C-1.39 76.15, 1.95 69, 8.62 62.34 C15.29 55.69, 26.46 48.87, 39.24 43 C52.02 37.13, 67.15 31.98, 85.3 27.1 C103.45 22.23, 125.38 17.71, 148.12 13.76 C170.87 9.81, 195.99 5.66, 221.77 3.4 C247.55 1.15, 269.96 0.34, 302.81 0.24 C335.65 0.13, 394.25 1.42, 418.83 2.78 C443.41 4.14, 451.95 6.99, 450.3 8.42 M296.09 -1 C320.74 -3.09, 349.07 -1.21, 375.91 -0.14 C402.75 0.93, 432.15 2.47, 457.15 5.43 C482.14 8.39, 504.66 13.13, 525.89 17.62 C547.12 22.11, 567.87 26.83, 584.53 32.37 C601.19 37.92, 615.11 44.63, 625.85 50.92 C636.58 57.2, 644.72 63.46, 648.94 70.08 C653.16 76.7, 653.5 83.88, 651.17 90.62 C648.85 97.37, 644.07 104.41, 635 110.56 C625.92 116.7, 612.19 121.92, 596.71 127.48 C581.24 133.03, 562.4 139.38, 542.17 143.9 C521.94 148.41, 499.22 151.25, 475.34 154.56 C451.45 157.87, 425.16 162.25, 398.87 163.77 C372.58 165.28, 344.75 164.2, 317.59 163.66 C290.43 163.11, 261.96 162.28, 235.91 160.5 C209.86 158.71, 184.66 156.31, 161.27 152.93 C137.89 149.55, 115.02 144.96, 95.59 140.21 C76.16 135.47, 58.49 130.02, 44.69 124.45 C30.9 118.88, 20.24 113.1, 12.81 106.78 C5.39 100.46, 1.21 93.76, 0.15 86.55 C-0.9 79.33, 0.7 70.27, 6.49 63.51 C12.28 56.75, 22.56 51.73, 34.89 45.98 C47.22 40.23, 62.41 34.24, 80.47 29.01 C98.54 23.77, 120.99 18.61, 143.28 14.55 C165.57 10.5, 189.09 6.98, 214.21 4.67 C239.34 2.35, 280.53 0.88, 294.01 0.68 C307.48 0.47, 294.52 2.01, 295.06 3.45" stroke="#1e1e1e" stroke-width="2" fill="none"></path></g><g transform="translate(5262.825249080204 3599.3476902559123) rotate(0 237.5834503173828 49.09040702003949)"><text x="0" y="68.72656982805537" font-family="Times New Roman" font-size="78.54465123206329px" fill="#1e1e1e" text-anchor="start" style="white-space: pre;" direction="ltr" dominant-baseline="alphabetic">phonenumber</text></g><g stroke-linecap="round" transform="translate(5202.0295929712665 4319.183486174734) rotate(0 218.10493051733056 80.24017683751026)"><path d="M235.24 1.01 C255.92 0.39, 278.74 3.15, 298.56 5.97 C318.39 8.8, 337.62 12.93, 354.2 17.96 C370.77 22.98, 385.84 29.76, 397.99 36.14 C410.14 42.52, 420.8 48.74, 427.09 56.25 C433.38 63.76, 435.74 73.29, 435.74 81.21 C435.74 89.14, 433.26 96.45, 427.08 103.81 C420.89 111.17, 410.84 118.94, 398.63 125.38 C386.41 131.83, 370.71 137.46, 353.78 142.5 C336.86 147.55, 317.15 152.76, 297.05 155.65 C276.96 158.54, 254.66 159.24, 233.22 159.84 C211.77 160.44, 189.08 160.94, 168.37 159.25 C147.66 157.56, 127.56 153.71, 108.94 149.7 C90.32 145.7, 71.21 141.1, 56.66 135.22 C42.1 129.33, 30.5 121.79, 21.6 114.39 C12.7 106.98, 6.56 98.63, 3.26 90.78 C-0.04 82.93, -1.22 75.01, 1.79 67.29 C4.81 59.57, 11.72 51.55, 21.36 44.46 C30.99 37.37, 44.93 30.34, 59.59 24.75 C74.25 19.16, 90.87 14.66, 109.32 10.92 C127.77 7.18, 146.87 4.15, 170.28 2.32 C193.7 0.5, 234.14 -0.24, 249.79 -0.05 C265.44 0.13, 264.67 2.06, 264.18 3.44 M238.39 0.05 C259.09 -0.37, 282.9 2.96, 302.82 5.78 C322.73 8.61, 341.8 12.13, 357.86 17.02 C373.92 21.9, 387.35 28.49, 399.2 35.09 C411.04 41.7, 422.85 48.82, 428.93 56.65 C435.01 64.48, 436.23 73.86, 435.66 82.05 C435.08 90.24, 432.12 98.14, 425.47 105.78 C418.81 113.42, 408.18 121.45, 395.73 127.89 C383.28 134.33, 367.83 139.77, 350.78 144.43 C333.73 149.1, 313.33 153.2, 293.42 155.88 C273.51 158.57, 252.68 160.37, 231.33 160.52 C209.99 160.67, 186.45 158.78, 165.35 156.78 C144.26 154.78, 123.07 152.6, 104.76 148.52 C86.44 144.43, 69.53 137.96, 55.46 132.28 C41.39 126.6, 29.15 121.59, 20.32 114.44 C11.5 107.29, 5.4 97.53, 2.49 89.37 C-0.42 81.21, -0.68 73.16, 2.86 65.49 C6.39 57.83, 14.1 50.33, 23.69 43.38 C33.27 36.43, 45.76 29.4, 60.37 23.8 C74.97 18.2, 92.54 13.3, 111.32 9.79 C130.09 6.28, 151.87 4.12, 173.02 2.75 C194.18 1.38, 227.63 1.92, 238.23 1.59 C248.83 1.25, 237.01 -0.5, 236.61 0.75" stroke="#1e1e1e" stroke-width="2" fill="none"></path></g><g transform="translate(5289.133256623132 4341.482368389799) rotate(0 138.64947509765625 52.518764347150864)"><text x="0" y="73.52627008601074" font-family="Times New Roman" font-size="84.03002295544084px" fill="#1e1e1e" text-anchor="start" style="white-space: pre;" direction="ltr" dominant-baseline="alphabetic">gender</text></g><g stroke-linecap="round" transform="translate(5189.74184699113 3337.2623138825093) rotate(0 218.28580766888126 83.98492187924785)"><path d="M297.77 6.07 C317.88 7.79, 336.96 14.2, 353.86 19.21 C370.77 24.21, 387.07 29.31, 399.19 36.11 C411.31 42.91, 420.2 52.05, 426.58 59.99 C432.96 67.92, 437.29 75.62, 437.47 83.72 C437.65 91.81, 434.1 100.7, 427.67 108.54 C421.25 116.38, 411.15 123.77, 398.92 130.74 C386.69 137.71, 371.19 145.17, 354.28 150.34 C337.38 155.52, 317.53 158.75, 297.47 161.8 C277.42 164.85, 255.19 167.92, 233.96 168.63 C212.72 169.33, 191.06 167.89, 170.04 166 C149.03 164.12, 126.48 161.55, 107.87 157.32 C89.26 153.1, 72.63 147.01, 58.38 140.66 C44.13 134.31, 31.84 126.72, 22.36 119.23 C12.89 111.74, 4.97 103.81, 1.54 95.72 C-1.89 87.63, -1.71 78.83, 1.78 70.67 C5.26 62.5, 13.09 54.01, 22.45 46.75 C31.8 39.48, 43.46 32.95, 57.92 27.08 C72.38 21.21, 90.57 15.87, 109.22 11.55 C127.87 7.22, 148.76 3.01, 169.8 1.13 C190.85 -0.75, 212.56 -0.68, 235.49 0.26 C258.42 1.2, 294.2 4.97, 307.38 6.76 C320.56 8.54, 316.16 9.57, 314.57 10.96 M198.11 -1 C217.61 -3.22, 239.96 -1.08, 261.06 0.6 C282.15 2.27, 305.76 4.85, 324.68 9.07 C343.61 13.3, 359.87 19.72, 374.59 25.95 C389.31 32.19, 403.28 38.97, 413.01 46.48 C422.75 53.98, 429.44 62.85, 433.02 70.99 C436.6 79.13, 437.32 87.27, 434.51 95.32 C431.7 103.36, 424.89 111.81, 416.17 119.25 C407.45 126.69, 396.41 134.09, 382.21 139.96 C368.01 145.83, 349.6 150.28, 330.97 154.45 C312.33 158.61, 291.16 162.97, 270.41 164.96 C249.66 166.94, 227.64 166.61, 206.45 166.36 C185.26 166.11, 163.25 166.31, 143.25 163.47 C123.25 160.63, 103.59 154.67, 86.44 149.32 C69.3 143.97, 52.89 137.98, 40.4 131.38 C27.91 124.77, 18.3 117.41, 11.5 109.67 C4.69 101.93, 0.24 93.11, -0.46 84.94 C-1.16 76.78, 1.36 68.3, 7.27 60.68 C13.19 53.06, 23.15 45.87, 35.03 39.2 C46.91 32.54, 62.23 26.35, 78.56 20.7 C94.89 15.04, 113.26 8.54, 132.99 5.29 C152.71 2.03, 186.23 1.53, 196.9 1.15 C207.57 0.77, 196.46 1.69, 197 2.99" stroke="#1e1e1e" stroke-width="2" fill="none"></path></g><g transform="translate(5275.192668623202 3373.605927098177) rotate(0 126.57496463587677 56.91315569784547)"><text x="0" y="79.6784179769833" font-family="Times New Roman" font-size="91.06104911655234px" fill="#1e1e1e" text-anchor="start" style="white-space: pre;" direction="ltr" dominant-baseline="alphabetic">email</text></g><g stroke-linecap="round" transform="translate(5203.595848358958 4120.579302920161) rotate(0 241.26939082283116 65.9522308704627)"><path d="M263.7 -0.47 C285.57 -1.01, 308.62 2.87, 329.79 5.2 C350.96 7.52, 372.64 9.84, 390.73 13.5 C408.82 17.15, 425.19 22.13, 438.34 27.12 C451.49 32.12, 462.25 37.45, 469.62 43.45 C477 49.46, 481.53 56.94, 482.57 63.17 C483.62 69.41, 481.22 74.78, 475.88 80.86 C470.53 86.94, 461.62 94.15, 450.51 99.63 C439.39 105.11, 425.65 109.47, 409.18 113.73 C392.72 117.99, 371.87 122.42, 351.7 125.19 C331.53 127.97, 310.09 129.48, 288.15 130.39 C266.21 131.29, 242.84 131.24, 220.06 130.63 C197.28 130.01, 172.82 128.9, 151.47 126.69 C130.12 124.47, 109.58 121.15, 91.96 117.33 C74.34 113.51, 58.95 108.64, 45.75 103.77 C32.55 98.9, 20.42 93.77, 12.78 88.09 C5.13 82.41, 1 76.1, -0.11 69.7 C-1.21 63.29, 0.77 55.76, 6.17 49.67 C11.56 43.58, 20.96 38.48, 32.28 33.16 C43.6 27.85, 57.75 21.98, 74.08 17.77 C90.4 13.57, 110.25 10.68, 130.24 7.94 C150.24 5.19, 170.92 2.4, 194.06 1.32 C217.19 0.23, 255.72 1.21, 269.07 1.41 C282.42 1.6, 274.76 1.68, 274.17 2.47 M151.99 5.01 C170.38 2.18, 196.84 1.22, 219.42 0.81 C242.01 0.39, 265.35 1.32, 287.51 2.53 C309.68 3.73, 332.39 5.32, 352.42 8.04 C372.46 10.76, 391.2 14.62, 407.71 18.85 C424.22 23.07, 440.19 28.3, 451.48 33.38 C462.78 38.46, 470.55 43.39, 475.51 49.3 C480.47 55.21, 482.37 62.7, 481.25 68.87 C480.13 75.03, 476.06 80.25, 468.79 86.28 C461.52 92.32, 450.7 100.05, 437.61 105.1 C424.51 110.14, 408.2 113.07, 390.24 116.54 C372.28 120, 350.95 123.51, 329.85 125.89 C308.74 128.28, 286.23 130.2, 263.61 130.86 C241 131.52, 216.62 130.94, 194.14 129.83 C171.67 128.72, 148.81 126.74, 128.75 124.19 C108.68 121.64, 89.9 118.58, 73.75 114.54 C57.59 110.5, 43.21 105.69, 31.81 99.94 C20.41 94.19, 10.65 86.16, 5.33 80.05 C0 73.95, -1.37 69.14, -0.12 63.31 C1.13 57.48, 5.14 51, 12.83 45.06 C20.52 39.12, 32.89 32.9, 46.03 27.67 C59.17 22.44, 74.13 17.47, 91.66 13.68 C109.19 9.89, 140.9 5.99, 151.18 4.92 C161.47 3.85, 151.89 6.18, 153.38 7.27" stroke="#1e1e1e" stroke-width="2" fill="none"></path></g><g stroke-linecap="round"><g transform="translate(5257.9163549550685 4044.5814792304027) rotate(0 222.38314979100915 -1.5775194352954713)"><path d="M0.9 0.27 C74.84 -0.15, 369.78 -3.32, 443.87 -3.71 M-0.09 -0.63 C74.2 -0.79, 371.93 -1.93, 446.11 -2.47" stroke="#1e1e1e" stroke-width="2" fill="none"></path></g></g><mask></mask><g stroke-linecap="round"><g transform="translate(5375.653777473613 4202.460127568909) rotate(0 0 0)"><path d="M0 0 C0 0, 0 0, 0 0 M0 0 C0 0, 0 0, 0 0" stroke="#1e1e1e" stroke-width="4" fill="none"></path></g></g><mask></mask><g transform="translate(5231.740434055122 4145.318413793628) rotate(0 219.5511376554532 43.83963808331191)"><text x="0" y="61.37549331663635" font-family="Times New Roman" font-size="70.14342093329869px" fill="#1e1e1e" text-anchor="start" style="white-space: pre;" direction="ltr" dominant-baseline="alphabetic">hourly_rate</text></g><g stroke-linecap="round"><g transform="translate(4821.163741353679 3925.215149875574) rotate(0 184.12452439710205 -249.73211007021018)"><path d="M0 0 C76.92 -104.33, 153.84 -208.66, 368.25 -499.46 M0 0 C115.49 -156.64, 230.98 -313.28, 368.25 -499.46" stroke="#1e1e1e" stroke-width="4" fill="none"></path></g></g><mask></mask><g stroke-linecap="round"><g transform="translate(4922.749683064725 3956.960923172637) rotate(0 122.74968293140137 -152.37903366646879)"><path d="M0 0 C61.47 -76.31, 122.94 -152.61, 245.5 -304.76 M0 0 C50.31 -62.45, 100.61 -124.9, 245.5 -304.76" stroke="#1e1e1e" stroke-width="4" fill="none"></path></g></g><mask></mask><g stroke-linecap="round"><g transform="translate(4918.516918674002 3995.055479756091) rotate(0 134.38976482257567 -81.48041177169034)"><path d="M0 0 C76.35 -46.29, 152.69 -92.58, 268.78 -162.96 M0 0 C87.55 -53.08, 175.09 -106.16, 268.78 -162.96" stroke="#1e1e1e" stroke-width="4" fill="none"></path></g></g><mask></mask><g stroke-linecap="round"><g transform="translate(4920.633260502731 4020.4521468337007) rotate(0 138.62252921330014 -3.1746338429920797)"><path d="M0 0 C66.05 -1.51, 132.11 -3.03, 277.25 -6.35 M0 0 C91.17 -2.09, 182.35 -4.18, 277.25 -6.35" stroke="#1e1e1e" stroke-width="4" fill="none"></path></g></g><mask></mask><g stroke-linecap="round"><g transform="translate(4922.749683064725 4052.1977586642315) rotate(0 140.73887104202913 65.60752512315867)"><path d="M0 0 C107.63 50.17, 215.26 100.35, 281.48 131.22 M0 0 C70.06 32.66, 140.12 65.32, 281.48 131.22" stroke="#1e1e1e" stroke-width="4" fill="none"></path></g></g><mask></mask><g stroke-linecap="round"><g transform="translate(4821.163741353679 4086.0595508569604) rotate(0 189.41545970219067 156.61167695729455)"><path d="M0 0 C103.32 85.43, 206.64 170.85, 378.83 313.22 M0 0 C111.92 92.54, 223.84 185.07, 378.83 313.22" stroke="#1e1e1e" stroke-width="4" fill="none"></path></g></g><mask></mask><g stroke-linecap="round" transform="translate(2568.311605219626 3772.688827684973) rotate(0 492.7026770590012 243.10973769427255)"><path d="M493 0 C595.87 50.98, 698.74 101.95, 985.41 244 M493 0 C623.7 64.77, 754.4 129.53, 985.41 244 M985.41 244 C882.06 294.84, 778.71 345.68, 493 486.22 M985.41 244 C820.32 325.21, 655.23 406.42, 493 486.22 M493 486.22 C347.14 414.56, 201.28 342.89, 0 244 M493 486.22 C375.79 428.63, 258.57 371.04, 0 244 M0 244 C101.24 193.89, 202.49 143.78, 493 0 M0 244 C101.29 193.87, 202.58 143.74, 493 0" stroke="#1e1e1e" stroke-width="4" fill="none"></path></g><g transform="translate(2749.833585564067 3921.7961598499005) rotate(0 309.72773859289214 87.32929635902474)"><text x="0" y="122.26101490263407" font-family="Times New Roman" font-size="139.72687417443893px" fill="#1e1e1e" text-anchor="start" style="white-space: pre;" direction="ltr" dominant-baseline="alphabetic">conducts</text></g><g stroke-linecap="round"><g transform="translate(4283.814972662774 4003.0638417677746) rotate(0 -364.5895967864499 6.944591501222021)"><path d="M0 0 C-239.29 4.56, -478.58 9.12, -729.18 13.89 M0 0 C-151.64 2.89, -303.29 5.78, -729.18 13.89" stroke="#1e1e1e" stroke-width="4" fill="none"></path></g></g><mask></mask><g stroke-linecap="round"><g transform="translate(1768.0545525162165 2655.9032499213863) rotate(0 403.2204603338774 680.8891755050417)"><path d="M0 0 C186.29 314.58, 372.59 629.16, 806.44 1361.78 M0 0 C197.55 333.58, 395.09 667.16, 806.44 1361.78" stroke="#1e1e1e" stroke-width="4" fill="none"></path></g></g><mask></mask><g stroke-linecap="round" transform="translate(4163.949263506253 2367.322755658879) rotate(0 551.731422338785 78.97975667558148)"><path d="M0 0 C422.99 0, 845.97 0, 1103.46 0 M0 0 C278.99 0, 557.99 0, 1103.46 0 M1103.46 0 C1103.46 49.23, 1103.46 98.46, 1103.46 157.96 M1103.46 0 C1103.46 61.11, 1103.46 122.23, 1103.46 157.96 M1103.46 157.96 C763.77 157.96, 424.07 157.96, 0 157.96 M1103.46 157.96 C791.78 157.96, 480.1 157.96, 0 157.96 M0 157.96 C0 110.65, 0 63.34, 0 0 M0 157.96 C0 101.41, 0 44.85, 0 0" stroke="#1e1e1e" stroke-width="4" fill="none"></path></g><g transform="translate(4274.94752753701 2391.920921458601) rotate(0 468.68798828125 66.58099000595303)"><text x="0" y="93.21338600833427" font-family="Times New Roman" font-size="106.52958400952488px" fill="#1e1e1e" text-anchor="start" style="white-space: pre;" direction="ltr" dominant-baseline="alphabetic">Training_Session</text></g><g stroke-linecap="round" transform="translate(5653.901319741966 2695.9943370346336) rotate(0 347.64321912438163 79.90918615860483)"><path d="M232.08 5.11 C255.03 2.03, 285.86 1.09, 313.4 0.49 C340.95 -0.12, 369.66 0.46, 397.34 1.48 C425.02 2.51, 453.86 4.31, 479.5 6.63 C505.15 8.95, 528.76 11.88, 551.23 15.39 C573.7 18.89, 596.22 22.67, 614.33 27.68 C632.44 32.68, 647.78 39.68, 659.87 45.4 C671.95 51.12, 681.01 55.89, 686.85 61.99 C692.68 68.08, 695.56 75.54, 694.87 81.96 C694.19 88.37, 690.06 94.31, 682.74 100.47 C675.42 106.62, 664.38 113.24, 650.96 118.89 C637.55 124.54, 621.09 129.62, 602.24 134.37 C583.39 139.12, 561.22 143.9, 537.84 147.38 C514.46 150.87, 487.93 153.21, 461.94 155.3 C435.95 157.39, 409.48 159.3, 381.91 159.91 C354.34 160.52, 324.14 160, 296.54 158.97 C268.94 157.93, 241.81 156.15, 216.31 153.7 C190.8 151.26, 165.81 148.02, 143.53 144.3 C121.26 140.59, 100.51 136.2, 82.67 131.42 C64.83 126.63, 48.87 121.38, 36.51 115.61 C24.15 109.85, 14.41 103.13, 8.51 96.84 C2.61 90.55, 0.5 84.06, 1.1 77.87 C1.7 71.68, 5.09 65.85, 12.13 59.72 C19.16 53.6, 29.86 46.76, 43.3 41.13 C56.74 35.51, 73.7 30.71, 92.75 25.96 C111.81 21.21, 132.06 16.52, 157.64 12.63 C183.21 8.73, 229.09 3.92, 246.21 2.57 C263.34 1.23, 258.76 3.1, 260.39 4.56 M329.54 -0.92 C355.66 -2.76, 385.21 -0.34, 412.5 1.25 C439.79 2.85, 468.21 6.14, 493.29 8.65 C518.37 11.17, 541.45 12.84, 562.98 16.35 C584.5 19.86, 605.13 24.56, 622.44 29.72 C639.75 34.87, 655.4 41.49, 666.84 47.27 C678.28 53.05, 686.35 57.91, 691.07 64.41 C695.78 70.9, 696.89 79.57, 695.13 86.24 C693.37 92.91, 689.14 98.47, 680.52 104.41 C671.9 110.35, 658.19 116.66, 643.43 121.89 C628.68 127.13, 611.34 131.58, 592 135.81 C572.66 140.04, 551.24 143.88, 527.4 147.26 C503.57 150.64, 475.51 154.19, 448.97 156.09 C422.42 158, 395.72 158.41, 368.16 158.7 C340.59 158.99, 310.95 159.06, 283.6 157.83 C256.24 156.59, 229.25 153.97, 204.03 151.29 C178.81 148.6, 154.07 145.55, 132.28 141.74 C110.48 137.92, 90.31 133.06, 73.24 128.4 C56.18 123.74, 41.22 119.28, 29.9 113.78 C18.58 108.27, 10.01 101.77, 5.34 95.36 C0.67 88.95, -0.1 82.02, 1.9 75.33 C3.89 68.63, 9.3 61.16, 17.3 55.2 C25.31 49.25, 35.46 45.15, 49.92 39.59 C64.37 34.02, 84.31 26.46, 104.03 21.8 C123.76 17.14, 144.78 14.76, 168.26 11.61 C191.74 8.46, 218.2 4.6, 244.92 2.9 C271.63 1.2, 314.68 1.59, 328.55 1.39 C342.42 1.19, 327.84 0.56, 328.14 1.71" stroke="#1e1e1e" stroke-width="2" fill="none"></path></g><g transform="translate(5708.592903087534 2704.3520871952533) rotate(0 274.96324606371945 59.45877875453334)"><text x="0" y="83.24229025634705" font-family="Times New Roman" font-size="95.13404600725377px" fill="#1e1e1e" text-anchor="start" style="white-space: pre;" direction="ltr" dominant-baseline="alphabetic">session_id</text></g><g stroke-linecap="round" transform="translate(5634.055910362442 2353.0032697535553) rotate(0 476.3173823459415 104.78516402218702)"><path d="M614.45 5.19 C646.96 5.66, 678.6 10.38, 707.46 13.8 C736.31 17.23, 762.6 21.22, 787.58 25.74 C812.56 30.26, 837.19 34.99, 857.32 40.91 C877.44 46.83, 894.54 54.7, 908.33 61.28 C922.12 67.86, 932.72 73.46, 940.04 80.4 C947.36 87.34, 951.64 95.63, 952.25 102.94 C952.85 110.24, 949.97 117.07, 943.68 124.21 C937.39 131.35, 927.31 138.98, 914.52 145.75 C901.72 152.52, 885.76 158.78, 866.89 164.82 C848.03 170.85, 825.62 177.01, 801.32 181.96 C777.02 186.92, 749.2 190.83, 721.1 194.55 C692.99 198.27, 663.86 201.92, 632.7 204.29 C601.53 206.66, 567.03 207.99, 534.11 208.77 C501.19 209.55, 467.87 209.64, 435.16 208.98 C402.45 208.31, 369.27 206.87, 337.85 204.79 C306.43 202.71, 275.48 199.91, 246.63 196.49 C217.78 193.07, 189.76 189.06, 164.75 184.26 C139.73 179.45, 116.36 173.51, 96.54 167.65 C76.72 161.79, 59.87 155.48, 45.81 149.09 C31.75 142.7, 19.9 136.35, 12.18 129.3 C4.46 122.25, 0.14 114.13, -0.51 106.81 C-1.17 99.49, 1.8 92.6, 8.23 85.39 C14.66 78.17, 25.05 70.44, 38.06 63.51 C51.06 56.59, 67.54 49.65, 86.25 43.83 C104.96 38.02, 126.27 33.38, 150.32 28.62 C174.37 23.85, 202.16 19.06, 230.56 15.22 C258.96 11.37, 289.37 7.83, 320.71 5.55 C352.04 3.28, 385.9 2.37, 418.56 1.57 C451.22 0.76, 482.18 -0.05, 516.68 0.72 C551.19 1.49, 606.05 5.04, 625.58 6.21 C645.11 7.39, 636.44 6.25, 633.87 7.76 M288.58 7.1 C314.15 3.02, 350.63 4.29, 383.05 3.16 C415.46 2.04, 450.32 0.41, 483.09 0.35 C515.87 0.3, 547.77 1.46, 579.69 2.84 C611.61 4.22, 644.25 5.89, 674.63 8.66 C705 11.43, 735.49 15.02, 761.94 19.47 C788.39 23.91, 811.56 29.82, 833.35 35.31 C855.14 40.8, 876.37 46.15, 892.69 52.41 C909 58.68, 921.49 66.03, 931.24 72.9 C940.99 79.78, 948.09 86.47, 951.19 93.66 C954.28 100.85, 953.7 108.71, 949.84 116.06 C945.97 123.42, 938.6 130.53, 927.99 137.79 C917.37 145.05, 903.01 153.05, 886.13 159.61 C869.25 166.18, 848.85 171.99, 826.69 177.2 C804.52 182.41, 779.89 187, 753.16 190.87 C726.42 194.74, 696.94 197.42, 666.26 200.42 C635.58 203.42, 601.43 207.57, 569.06 208.87 C536.68 210.18, 505.01 208.5, 472.02 208.24 C439.03 207.98, 403.64 208.79, 371.11 207.32 C338.57 205.86, 306.63 202.29, 276.82 199.43 C247.01 196.57, 218.69 194.37, 192.26 190.14 C165.82 185.9, 140.05 179.65, 118.21 174.03 C96.37 168.41, 77.46 162.74, 61.21 156.41 C44.96 150.08, 30.38 142.97, 20.69 136.04 C11 129.12, 6.02 122.09, 3.06 114.86 C0.11 107.63, -0.93 100.01, 2.95 92.68 C6.83 85.35, 15.86 77.97, 26.36 70.89 C36.86 63.81, 49.13 56.3, 65.96 50.2 C82.79 44.1, 104.78 39.57, 127.35 34.31 C149.93 29.05, 174.7 22.85, 201.42 18.64 C228.14 14.43, 272.84 10.48, 287.67 9.05 C302.49 7.61, 287.49 8.31, 290.38 10.01" stroke="#1e1e1e" stroke-width="2" fill="none"></path></g><g transform="translate(5757.813351885812 2376.4332086646446) rotate(0 451.2882474082835 68.89030114248999)"><text x="0" y="96.44642159948654" font-family="Times New Roman" font-size="110.22448182798462px" fill="#1e1e1e" text-anchor="start" style="white-space: pre;" direction="ltr" dominant-baseline="alphabetic">session_cost</text></g><g stroke-linecap="round" transform="translate(5642.51200031089 1986.0812474011182) rotate(0 438.3084257571877 98.2914476738415)"><path d="M622.82 9.24 C652.89 10.66, 679.01 15.41, 703.95 19.69 C728.9 23.97, 752.14 29.46, 772.5 34.92 C792.86 40.38, 811.4 46.12, 826.1 52.43 C840.8 58.75, 852.53 66.01, 860.69 72.79 C868.86 79.58, 873.28 86.15, 875.09 93.16 C876.9 100.17, 876.69 107.9, 871.58 114.84 C866.48 121.79, 856.31 128.42, 844.46 134.85 C832.62 141.27, 818.02 147.62, 800.52 153.41 C783.02 159.19, 762.16 164.68, 739.47 169.55 C716.78 174.42, 691.29 178.91, 664.38 182.62 C637.48 186.33, 607.89 189.63, 578.02 191.82 C548.16 194.01, 516.36 195.07, 485.2 195.75 C454.03 196.44, 422.35 196.5, 391.06 195.91 C359.76 195.33, 327.42 194.46, 297.41 192.22 C267.4 189.99, 237.94 186.21, 211 182.51 C184.07 178.81, 158.42 174.95, 135.83 170.01 C113.23 165.07, 92.85 158.95, 75.41 152.87 C57.97 146.8, 42.95 139.97, 31.18 133.56 C19.41 127.15, 9.9 121.16, 4.81 114.4 C-0.28 107.64, -1.24 100.11, 0.64 92.98 C2.52 85.85, 7.5 78.31, 16.1 71.62 C24.69 64.93, 37.53 58.98, 52.2 52.85 C66.87 46.72, 83.86 40.17, 104.11 34.84 C124.35 29.51, 148.34 25.21, 173.66 20.85 C198.97 16.5, 227.57 11.81, 256.02 8.72 C284.46 5.63, 313.93 3.6, 344.32 2.31 C374.71 1.02, 406.87 0.85, 438.35 0.98 C469.84 1.12, 499.85 1.38, 533.24 3.12 C566.62 4.85, 618.83 9.29, 638.66 11.38 C658.49 13.47, 655.37 14.36, 652.22 15.66 M483.85 -0.74 C514.22 -1.54, 544.9 2.45, 574.72 4.69 C604.53 6.93, 635.57 9.18, 662.73 12.7 C689.89 16.23, 714.81 21.07, 737.67 25.82 C760.53 30.57, 782.06 35.44, 799.89 41.2 C817.72 46.96, 832.87 53.74, 844.66 60.4 C856.45 67.07, 865.38 73.87, 870.63 81.19 C875.87 88.51, 877.64 96.96, 876.12 104.32 C874.59 111.67, 869.44 118.65, 861.45 125.32 C853.47 131.99, 842.55 138.41, 828.23 144.32 C813.91 150.24, 796.05 155.29, 775.52 160.81 C754.98 166.33, 729.9 173.28, 705.03 177.45 C680.16 181.63, 654.68 183.04, 626.29 185.87 C597.9 188.69, 565.64 192.73, 534.7 194.42 C503.75 196.1, 471.83 195.76, 440.62 195.98 C409.41 196.19, 378.11 197.07, 347.44 195.71 C316.77 194.34, 285.23 190.88, 256.61 187.8 C227.98 184.72, 200.88 181.44, 175.67 177.22 C150.46 173, 125.7 167.79, 105.35 162.46 C85 157.14, 68.36 151.45, 53.57 145.26 C38.78 139.06, 25.18 132.18, 16.62 125.29 C8.06 118.4, 4.2 111.16, 2.22 103.93 C0.24 96.71, -0.12 88.73, 4.74 81.92 C9.6 75.12, 19.76 69.57, 31.39 63.09 C43.01 56.61, 57.25 48.91, 74.49 43.04 C91.72 37.18, 112.4 32.74, 134.77 27.89 C157.15 23.04, 182.19 17.52, 208.73 13.94 C235.27 10.36, 264 8.88, 294 6.42 C324 3.95, 357.39 0.34, 388.76 -0.83 C420.12 -1.99, 466.76 -1.05, 482.19 -0.56 C497.61 -0.07, 482.18 0.12, 481.31 2.09" stroke="#1e1e1e" stroke-width="2" fill="none"></path></g><g transform="translate(5742.51905842558 2028.615862862236) rotate(0 352.22328763958694 66.60810464610586)"><text x="0" y="93.25134650454858" font-family="Times New Roman" font-size="106.5729674337698px" fill="#1e1e1e" text-anchor="start" style="white-space: pre;" direction="ltr" dominant-baseline="alphabetic">session_date</text></g><g stroke-linecap="round"><g transform="translate(5722.299787598016 2813.8896584092017) rotate(0 260.26531003570835 -1.8462441300089267)"><path d="M0.09 -0.35 C86.9 -0.99, 433.2 -3.68, 519.97 -4.21 M-1.32 -1.58 C85.36 -2.03, 431.84 -2.85, 518.72 -2.94" stroke="#1e1e1e" stroke-width="2" fill="none"></path></g></g><mask></mask><g stroke-linecap="round"><g transform="translate(5860.093351559099 2998.662359922133) rotate(0 0 0)"><path d="M0 0 C0 0, 0 0, 0 0 M0 0 C0 0, 0 0, 0 0" stroke="#1e1e1e" stroke-width="4" fill="none"></path></g></g><mask></mask><g stroke-linecap="round"><g transform="translate(5263.0897875044175 2502.329535168892) rotate(0 189.05013694017543 134.12578874958763)"><path d="M0 0 C117.71 83.52, 235.43 167.03, 378.1 268.25 M0 0 C146.66 104.05, 293.31 208.1, 378.1 268.25" stroke="#1e1e1e" stroke-width="4" fill="none"></path></g></g><mask></mask><g stroke-linecap="round"><g transform="translate(5266.164480462248 2399.4431933451087) rotate(0 183.4982362238061 -157.3045835777766)"><path d="M0 0 C110.57 -94.79, 221.14 -189.58, 367 -314.61 M0 0 C84.2 -72.18, 168.41 -144.37, 367 -314.61" stroke="#1e1e1e" stroke-width="4" fill="none"></path></g></g><mask></mask><g stroke-linecap="round"><g transform="translate(5264.048057900254 2459.650758819809) rotate(0 181.52829796210608 -2.5305485618000603)"><path d="M0 0 C108.83 -1.52, 217.66 -3.03, 363.06 -5.06 M0 0 C122.13 -1.7, 244.27 -3.41, 363.06 -5.06" stroke="#1e1e1e" stroke-width="4" fill="none"></path></g></g><mask></mask><g stroke-linecap="round" transform="translate(4151.848960294608 1341.0248024956381) rotate(0 405.58227404799413 183.31385623610822)"><path d="M406 0 C498.92 42.2, 591.84 84.39, 811.16 184 M406 0 C528.62 55.69, 651.24 111.37, 811.16 184 M811.16 184 C711.1 229.11, 611.03 274.21, 406 366.63 M811.16 184 C703.73 232.43, 596.3 280.85, 406 366.63 M406 366.63 C299.4 318.68, 192.79 270.72, 0 184 M406 366.63 C293.19 315.88, 180.38 265.14, 0 184 M0 184 C108.07 135.02, 216.15 86.04, 406 0 M0 184 C120.47 129.4, 240.94 74.81, 406 0" stroke="#1e1e1e" stroke-width="4" fill="none"></path></g><g transform="translate(4303.083206368488 1463.6157340674708) rotate(0 244.99732487276992 61.45421193234415)"><text x="0" y="86.03589670528177" font-family="Times New Roman" font-size="98.3267390917506px" fill="#1e1e1e" text-anchor="start" style="white-space: pre;" direction="ltr" dominant-baseline="alphabetic">schedules</text></g><g stroke-linecap="round"><g transform="translate(4536.808303140839 647.8690213702748) rotate(0 11.457116014757048 341.42204849866584)"><path d="M0 0 C4.69 139.73, 9.38 279.46, 22.91 682.84 M0 0 C6.02 179.36, 12.04 358.72, 22.91 682.84" stroke="#1e1e1e" stroke-width="4" fill="none"></path></g></g><mask></mask><g stroke-linecap="round"><g transform="translate(4564.305311647569 1711.0893350931874) rotate(0 2.29147564946652 325.3822871229804)"><path d="M0 0 C1.16 164.72, 2.32 329.43, 4.58 650.76 M0 0 C1.77 250.96, 3.53 501.91, 4.58 650.76" stroke="#1e1e1e" stroke-width="4" fill="none"></path></g></g><mask></mask><g stroke-linecap="round" transform="translate(4152.994829235629 3003.4522313438138) rotate(0 405.58227404799413 183.31385623610822)"><path d="M406 0 C537.15 59.56, 668.29 119.12, 811.16 184 M406 0 C505.45 45.16, 604.9 90.33, 811.16 184 M811.16 184 C711.93 228.73, 612.69 273.46, 406 366.63 M811.16 184 C652.15 255.68, 493.13 327.35, 406 366.63 M406 366.63 C265.16 303.28, 124.33 239.93, 0 184 M406 366.63 C306.45 321.85, 206.9 277.07, 0 184 M0 184 C134.21 123.17, 268.43 62.35, 406 0 M0 184 C111.11 133.64, 222.22 83.29, 406 0" stroke="#1e1e1e" stroke-width="4" fill="none"></path></g><g transform="translate(4331.72599640538 3131.7718957447432) rotate(0 210.41118473664756 59.3264936250107)"><text x="0" y="83.05709107501468" font-family="Times New Roman" font-size="94.92238980001679px" fill="#1e1e1e" text-anchor="start" style="white-space: pre;" direction="ltr" dominant-baseline="alphabetic">provides</text></g><g stroke-linecap="round"><g transform="translate(4558.576753640191 2998.869280044879) rotate(0 2.0484462542333404 -238.43568271517688)"><path d="M0 0 C1.57 -182.36, 3.13 -364.72, 4.1 -476.87 M0 0 C1.37 -158.9, 2.73 -317.8, 4.1 -476.87" stroke="#1e1e1e" stroke-width="4" fill="none"></path></g></g><mask></mask><g stroke-linecap="round"><g transform="translate(4561.0955367487495 3368.029423697968) rotate(0 1.778509481753872 277.45161774666303)"><path d="M0 0 C0.96 150.07, 1.92 300.15, 3.56 554.9 M0 0 C1.4 217.69, 2.79 435.38, 3.56 554.9" stroke="#1e1e1e" stroke-width="4" fill="none"></path></g></g><mask></mask><g transform="translate(2343.696622210124 396.79622021153136) rotate(0 39.239899732571644 88.28977439828623)"><text x="0" y="123.60568415760065" font-family="Times New Roman" font-size="141.2636390372579px" fill="#1e1e1e" text-anchor="start" style="white-space: pre;" direction="ltr" dominant-baseline="alphabetic">1</text></g><g transform="translate(3843.726845561569 404.5803186111707) rotate(0 39.23989973257176 88.28977439828623)"><text x="0" y="123.60568415760065" font-family="Times New Roman" font-size="141.2636390372579px" fill="#1e1e1e" text-anchor="start" style="white-space: pre;" direction="ltr" dominant-baseline="alphabetic">1</text></g><g transform="translate(2096.4514237985027 1889.8960032857685) rotate(0 36.30041614937602 81.67593633609613)"><text x="0" y="114.34631087053462" font-family="Times New Roman" font-size="130.68149813775386px" fill="#1e1e1e" text-anchor="start" style="white-space: pre;" direction="ltr" dominant-baseline="alphabetic">M</text></g><g transform="translate(2243.3469398238376 3220.3100335735016) rotate(0 36.30041614937602 81.67593633609613)"><text x="0" y="114.34631087053462" font-family="Times New Roman" font-size="130.68149813775386px" fill="#1e1e1e" text-anchor="start" style="white-space: pre;" direction="ltr" dominant-baseline="alphabetic">M</text></g><g transform="translate(3853.6282024456327 3819.0312436778877) rotate(0 36.5 81.67593633609613)"><text x="0" y="114.34631087053462" font-family="Times New Roman" font-size="130.68149813775386px" fill="#1e1e1e" text-anchor="start" style="white-space: pre;" direction="ltr" dominant-baseline="alphabetic">1</text></g><g transform="translate(4604.614811496494 3513.404942031928) rotate(0 36.5 81.67593633609613)"><text x="0" y="114.34631087053462" font-family="Times New Roman" font-size="130.68149813775386px" fill="#1e1e1e" text-anchor="start" style="white-space: pre;" direction="ltr" dominant-baseline="alphabetic">1</text></g><g transform="translate(4604.614811496494 2636.208959237465) rotate(0 36.5 81.67593633609613)"><text x="0" y="114.34631087053462" font-family="Times New Roman" font-size="130.68149813775386px" fill="#1e1e1e" text-anchor="start" style="white-space: pre;" direction="ltr" dominant-baseline="alphabetic">M</text></g><g transform="translate(4585.121545008114 976.4982474578492) rotate(0 36.5 81.67593633609613)"><text x="0" y="114.34631087053462" font-family="Times New Roman" font-size="130.68149813775386px" fill="#1e1e1e" text-anchor="start" style="white-space: pre;" direction="ltr" dominant-baseline="alphabetic">1</text></g><g transform="translate(4599.045291609849 1906.6045629456894) rotate(0 36.5 81.67593633609613)"><text x="0" y="114.34631087053462" font-family="Times New Roman" font-size="130.68149813775386px" fill="#1e1e1e" text-anchor="start" style="white-space: pre;" direction="ltr" dominant-baseline="alphabetic">M</text></g><g stroke-linecap="round"><g transform="translate(226.78292224085567 208.34591240468853) rotate(0 137.88542395699267 0.6999553528903562)"><path d="M0 0 C76.56 0.39, 153.12 0.78, 275.77 1.4 M0 0 C82.14 0.42, 164.28 0.83, 275.77 1.4" stroke="#1e1e1e" stroke-width="4" fill="none"></path></g></g><mask></mask><g transform="translate(3786.5967732524055 1057.36294369607) rotate(0 38.007259658726525 86.38018884284656)"><text x="0" y="120.9322643799849" font-family="Times New Roman" font-size="138.20830214855417px" fill="#1e1e1e" text-anchor="start" style="white-space: pre;" direction="ltr" dominant-baseline="alphabetic">M</text></g></svg>