<svg version="1.1" id="Layer_1" xmlns:x="ns_extend;" xmlns:i="ns_ai;" xmlns:graph="ns_graphs;" xmlns="http://www.w3.org/2000/svg" xmlns:xlink="http://www.w3.org/1999/xlink" x="0px" y="0px" viewBox="0 0 185.5 43" style="enable-background:new 0 0 185.5 43;" xml:space="preserve">
 <style type="text/css">
  .st0{fill:#FFFFFF;}
	.st1{fill:url(#SVGID_1_);}
	.st2{fill:url(#SVGID_2_);}
 </style>
 <metadata>
  <sfw xmlns="ns_sfw;">
   <slices>
   </slices>
   <sliceSourceBounds bottomLeftOrigin="true" height="43" width="185.5" x="-19.4" y="-4.5">
   </sliceSourceBounds>
  </sfw>
 </metadata>
 <g>
  <path class="st0" d="M62.6,20.9v-6.5h3.5c2.2,0,3.5,1.2,3.5,3.2c0,1.9-1.3,3.2-3.5,3.2H62.6z M66.6,24.6c4.5,0,7.4-2.9,7.4-7
		c0-4.1-3-7-7.4-7h-8.4v22.5h4.4v-8.5H66.6z">
  </path>
  <path class="st0" d="M81.2,23.9c0.1-1.7,1.1-3.1,2.9-3.1c2,0,2.9,1.4,2.9,3.1v9.1h4.2v-9.9c0-3.4-1.8-6.2-5.8-6.2
		c-1.5,0-3.2,0.5-4.2,1.7v-8.7h-4.2v23h4.2V23.9z">
  </path>
  <path class="st0" d="M94.5,28.9c0,2.4,2,4.7,5.4,4.7c2.3,0,3.8-1.1,4.6-2.3c0,0.6,0.1,1.5,0.2,1.9h3.9c-0.1-0.5-0.2-1.7-0.2-2.5V23
		c0-3.1-1.8-5.9-6.8-5.9c-4.2,0-6.5,2.7-6.7,5.2l3.8,0.8c0.1-1.4,1.1-2.5,3-2.5c1.8,0,2.6,0.9,2.6,2c0,0.5-0.3,1-1.2,1.1l-3.8,0.6
		C96.6,24.5,94.5,26.1,94.5,28.9z M100.8,30.4c-1.4,0-2-0.9-2-1.8c0-1.2,0.9-1.8,1.9-2l3.5-0.5v0.7
		C104.2,29.6,102.6,30.4,100.8,30.4z">
  </path>
  <path class="st0" d="M116.9,24.1c0-1.8,1.1-3.2,2.9-3.2c2,0,2.9,1.4,2.9,3.1v9.1h4.2v-9.9c0-3.4-1.8-6.2-5.7-6.2
		c-1.7,0-3.6,0.7-4.5,2.4v-1.9h-4.1v15.6h4.2V24.1z">
  </path>
  <path class="st0" d="M136.4,12.8h-3.8V15c0,1.4-0.8,2.5-2.4,2.5h-0.8v3.8h2.8v7.3c0,3,1.9,4.8,5,4.8c1.2,0,2-0.2,2.4-0.4v-3.5
		c-0.2,0.1-0.8,0.1-1.3,0.1c-1.2,0-1.8-0.4-1.8-1.8v-6.6h3.1v-3.8h-3.1V12.8z">
  </path>
  <path class="st0" d="M150,29.8c-2.1,0-4-1.5-4-4.5c0-3,1.9-4.5,4-4.5s4,1.5,4,4.5S152.1,29.8,150,29.8z M150,17
		c-4.7,0-8.2,3.5-8.2,8.3c0,4.8,3.5,8.3,8.2,8.3s8.2-3.5,8.2-8.3C158.2,20.5,154.7,17,150,17z">
  </path>
  <path class="st0" d="M165.8,33.1V24c0-1.7,1.1-3.1,2.9-3.1c1.9,0,2.8,1.3,2.8,3v9.3h4.2V24c0-1.7,1.1-3.1,2.9-3.1
		c1.9,0,2.8,1.3,2.8,3v9.3h4.1V23c0-4.2-2.8-5.9-5.7-5.9c-2.1,0-3.7,0.7-5,2.6c-0.8-1.7-2.5-2.6-4.6-2.6c-1.7,0-3.7,0.8-4.6,2.4
		v-1.9h-4v15.6H165.8z">
  </path>
  <linearGradient id="SVGID_1_" gradientUnits="userSpaceOnUse" x1="21.5" y1="45" x2="21.5" y2="2" gradientTransform="matrix(1 0 0 -1 0 45)">
   <stop offset="0" style="stop-color:#534BB1">
   </stop>
   <stop offset="1" style="stop-color:#551BF9">
   </stop>
  </linearGradient>
  <circle class="st1" cx="21.5" cy="21.5" r="21.5">
  </circle>
  <linearGradient id="SVGID_2_" gradientUnits="userSpaceOnUse" x1="21.9575" y1="37.2234" x2="21.9575" y2="8.8617" gradientTransform="matrix(1 0 0 -1 0 45)">
   <stop offset="0" style="stop-color:#FFFFFF">
   </stop>
   <stop offset="1" style="stop-color:#FFFFFF;stop-opacity:0.82">
   </stop>
  </linearGradient>
  <path class="st2" d="M36.9,21.8h-3.8c0-7.7-6.3-14-14-14c-7.7,0-13.9,6.1-14,13.7c-0.2,7.8,7.2,14.7,15.1,14.7h1
		c6.9,0,16.3-5.4,17.7-12C39.1,22.9,38.1,21.8,36.9,21.8z M13.4,22.1c0,1-0.8,1.9-1.9,1.9c-1,0-1.9-0.8-1.9-1.9v-3
		c0-1,0.8-1.9,1.9-1.9c1,0,1.9,0.8,1.9,1.9V22.1z M20,22.1c0,1-0.8,1.9-1.9,1.9c-1,0-1.9-0.8-1.9-1.9v-3c0-1,0.8-1.9,1.9-1.9
		c1,0,1.9,0.8,1.9,1.9V22.1z">
  </path>
 </g>
</svg>